<svg xmlns="http://www.w3.org/2000/svg" xmlns:xlink="http://www.w3.org/1999/xlink" xmlns:fi="http://pattern.flaticon.com/" x="0" y="0" width="760" height="1396" viewBox="0 0 1773.3333333333335 3257.3333333333335"><rect x="0px" y="0px" width="100%" height="100%" opacity="1" fill="#e4ddd5"/><defs><g transform="matrix(0.1171875 0 0 0.1171875 172 171)" id="L1_0"><path d="M511.976,416.063c-0.005-0.075-0.004-0.149-0.011-0.224c-0.027-0.297-0.07-0.588-0.131-0.873    c-0.006-0.028-0.015-0.056-0.022-0.084c-0.059-0.262-0.132-0.518-0.218-0.768c-0.023-0.067-0.048-0.132-0.073-0.198    c-0.084-0.227-0.179-0.448-0.284-0.663c-0.018-0.038-0.03-0.077-0.049-0.115l-40.112-79.118V73.72    c0-8.006-6.513-14.519-14.519-14.519H55.441c-8.006,0-14.519,6.513-14.519,14.519v260.298L0.811,413.137    c-0.019,0.038-0.031,0.077-0.049,0.115c-0.105,0.215-0.199,0.436-0.284,0.662c-0.025,0.066-0.05,0.132-0.073,0.199    c-0.085,0.251-0.159,0.508-0.218,0.77c-0.006,0.027-0.015,0.054-0.021,0.081c-0.061,0.286-0.104,0.577-0.131,0.874    c-0.007,0.074-0.007,0.149-0.011,0.223C0.014,416.217,0,416.371,0,416.529v19.026c0,9.509,7.735,17.244,17.244,17.244h477.512    c9.509,0,17.244-7.735,17.244-17.244v-19.026C512,416.371,511.986,416.217,511.976,416.063z M55.923,74.203h400.154v254.109    H55.923V74.203z M53.029,343.311H458.97l33.318,65.717h-164.78l-8.271-29.989c-1.684-6.105-7.282-10.369-13.615-10.369h-99.246    c-6.333,0-11.932,4.264-13.615,10.368l-8.271,29.99H19.711L53.029,343.311z M311.948,409.029H200.052l6.993-25.358h97.91    L311.948,409.029z M497,435.554c0,1.237-1.007,2.244-2.244,2.244H17.244c-1.237,0-2.244-1.007-2.244-2.244v-11.526h482V435.554z" fill="#d4cbc5"/><path d="M432.577,213.756c-4.143,0-7.5,3.357-7.5,7.5v76.055H86.923v-76.055c0-4.143-3.357-7.5-7.5-7.5    c-4.143,0-7.5,3.357-7.5,7.5v79.294c0,6.485,5.275,11.761,11.761,11.761h344.633c6.485,0,11.761-5.275,11.761-11.761v-79.294    C440.077,217.115,436.72,213.756,432.577,213.756z" fill="#d4cbc5"/><path d="M428.316,90.203H83.684c-6.485,0-11.761,5.275-11.761,11.761v79.294c0,4.143,3.357,7.5,7.5,7.5c4.143,0,7.5-3.357,7.5-7.5    v-76.055h338.154v76.055c0,4.143,3.357,7.5,7.5,7.5s7.5-3.357,7.5-7.5v-79.294C440.077,95.477,434.802,90.203,428.316,90.203z" fill="#d4cbc5"/></g><g transform="matrix(0.12262415885925293 0 0 0.12262415885925293 113 231.99999625780765)" id="L1_2"><path d="M79.55,229.675c-10.2,10.2-10.2,26.8,0,37.1c10.2,10.2,26.8,10.2,37.1,0c70.6-70.6,185.5-70.6,256.1,0    c5.1,5.1,11.8,7.7,18.5,7.7s13.4-2.6,18.5-7.7c10.2-10.2,10.2-26.8,0-37.1C318.75,138.575,170.55,138.575,79.55,229.675z" fill="#d4cbc5"/><path d="M150.35,300.475c-10.2,10.2-10.2,26.8,0,37.1c10.2,10.2,26.8,10.2,37.1,0c31.5-31.6,82.9-31.6,114.4,0    c5.1,5.1,11.8,7.7,18.5,7.7s13.4-2.6,18.5-7.7c10.2-10.2,10.2-26.8,0-37C286.95,248.475,202.35,248.475,150.35,300.475z" fill="#d4cbc5"/><circle cx="244" cy="394" r="34" fill="#d4cbc5"/><path d="M481.65,157.675c-130.7-130.6-343.3-130.6-474,0c-10.2,10.2-10.2,26.8,0,37.1c10.2,10.2,26.8,10.2,37.1,0    c110.2-110.3,289.6-110.3,399.9,0c5.1,5.1,11.8,7.7,18.5,7.7s13.4-2.6,18.5-7.7C491.85,184.575,491.85,167.975,481.65,157.675z" fill="#d4cbc5"/></g><g transform="matrix(0.14150942862033844 0 0 0.14150942862033844 203 248.0000001415092)" id="L1_4"><path d="m167.289062 272.132812c-1.601562 0-3.214843-.550781-4.53125-1.671874l-45.296874-38.570313c-1.5625-1.332031-2.460938-3.277344-2.460938-5.332031 0-2.050782.902344-3.996094 2.460938-5.328125l45.296874-38.570313c2.941407-2.507812 7.359376-2.152344 9.867188.789063 2.503906 2.945312 2.152344 7.363281-.792969 9.867187l-39.035156 33.242188 39.035156 33.242187c2.945313 2.507813 3.296875 6.925781.792969 9.867188-1.386719 1.628906-3.355469 2.464843-5.335938 2.464843zm0 0" fill="#d4cbc5"/><path d="m256.710938 272.132812c-1.980469 0-3.949219-.835937-5.332032-2.464843-2.507812-2.941407-2.152344-7.359375.789063-9.867188l39.035156-33.242187-39.035156-33.242188c-2.941407-2.503906-3.296875-6.921875-.789063-9.867187 2.503906-2.941407 6.925782-3.296875 9.863282-.789063l45.296874 38.570313c1.5625 1.332031 2.460938 3.277343 2.460938 5.328125 0 2.054687-.898438 4-2.460938 5.332031l-45.296874 38.570313c-1.316407 1.121093-2.929688 1.671874-4.53125 1.671874zm0 0" fill="#d4cbc5"/><path d="m195.964844 301.0625c-.480469 0-.964844-.050781-1.453125-.152344-3.78125-.796875-6.203125-4.511718-5.40625-8.292968l28.230469-134.035157c.796874-3.78125 4.507812-6.203125 8.292968-5.40625 3.78125.796875 6.203125 4.507813 5.40625 8.292969l-28.230468 134.035156c-.695313 3.296875-3.601563 5.558594-6.839844 5.558594zm0 0" fill="#d4cbc5"/><path d="m377 374.085938h-330c-25.914062 0-47-21.082032-47-47v-280.085938c0-25.914062 21.085938-47 47-47h330c25.914062 0 47 21.085938 47 47v280.085938c0 25.917968-21.085938 47-47 47zm-330-360.085938c-18.195312 0-33 14.804688-33 33v280.085938c0 18.195312 14.804688 33 33 33h330c18.195312 0 33-14.804688 33-33v-280.085938c0-18.195312-14.804688-33-33-33zm0 0" fill="#d4cbc5"/><path d="m417 112.089844h-410c-3.867188 0-7-3.132813-7-7 0-3.863282 3.132812-7 7-7h410c3.867188 0 7 3.136718 7 7 0 3.867187-3.132812 7-7 7zm0 0" fill="#d4cbc5"/><path d="m119.601562 78.59375c-12.210937 0-22.152343-9.941406-22.152343-22.152344 0-12.214844 9.941406-22.152344 22.152343-22.152344 12.214844 0 22.152344 9.9375 22.152344 22.152344 0 12.210938-9.9375 22.152344-22.152344 22.152344zm0-30.304688c-4.492187 0-8.152343 3.65625-8.152343 8.152344s3.660156 8.152344 8.152343 8.152344c4.496094 0 8.152344-3.65625 8.152344-8.152344s-3.65625-8.152344-8.152344-8.152344zm0 0" fill="#d4cbc5"/><path d="m51.539062 78.378906c-12.214843 0-22.152343-9.9375-22.152343-22.152344 0-12.214843 9.9375-22.152343 22.152343-22.152343 12.214844 0 22.152344 9.9375 22.152344 22.152343 0 12.214844-9.9375 22.152344-22.152344 22.152344zm0-30.304687c-4.492187 0-8.152343 3.660156-8.152343 8.152343 0 4.496094 3.660156 8.152344 8.152343 8.152344 4.496094 0 8.152344-3.65625 8.152344-8.152344 0-4.492187-3.65625-8.152343-8.152344-8.152343zm0 0" fill="#d4cbc5"/><path d="m187.664062 78.804688c-12.210937 0-22.148437-9.9375-22.148437-22.152344 0-12.210938 9.9375-22.148438 22.148437-22.148438 12.214844 0 22.152344 9.9375 22.152344 22.148438 0 12.214844-9.9375 22.152344-22.152344 22.152344zm0-30.304688c-4.492187 0-8.148437 3.65625-8.148437 8.152344s3.65625 8.152344 8.148437 8.152344c4.496094 0 8.152344-3.65625 8.152344-8.152344s-3.65625-8.152344-8.152344-8.152344zm0 0" fill="#d4cbc5"/></g><path d="M50.976,26.194C50.447,17.194,43.028,10,34.085,10c-5.43,0-10.688,2.663-13.946,7.008c-0.075-0.039-0.154-0.066-0.23-0.102  c-0.198-0.096-0.399-0.187-0.604-0.269c-0.114-0.045-0.228-0.086-0.343-0.126c-0.203-0.071-0.409-0.134-0.619-0.191  c-0.115-0.031-0.229-0.063-0.345-0.089c-0.225-0.051-0.455-0.09-0.687-0.125c-0.101-0.015-0.2-0.035-0.302-0.046  C16.677,16.023,16.341,16,16,16c-4.963,0-9,4.037-9,9c0,0.127,0.008,0.252,0.016,0.377v0.004C2.857,27.649,0,32.399,0,37.154  C0,44.237,5.762,50,12.845,50h24.508c0.104,0,0.207-0.006,0.311-0.014l0.062-0.008l0.134,0.008C37.962,49.994,38.064,50,38.169,50  h9.803C54.604,50,60,44.604,60,37.972C60,32.483,56.173,27.56,50.976,26.194z M47.972,48h-9.803c-0.059,0-0.116-0.005-0.174-0.009  l-0.271-0.011l-0.198,0.011C37.469,47.995,37.411,48,37.353,48H12.845C6.865,48,2,43.135,2,37.154C2,33,4.705,28.688,8.433,26.901  L9,26.63V26c0-0.127,0.008-0.256,0.015-0.386l0.009-0.16l-0.012-0.21C9.006,25.163,9,25.082,9,25c0-3.859,3.141-7,7-7  c0.309,0,0.614,0.027,0.917,0.067c0.078,0.01,0.156,0.023,0.233,0.036c0.267,0.044,0.53,0.102,0.789,0.177  c0.035,0.01,0.071,0.017,0.106,0.027c0.285,0.087,0.563,0.197,0.835,0.321c0.071,0.032,0.14,0.067,0.21,0.101  c0.24,0.119,0.475,0.249,0.702,0.396C21.719,20.373,23,22.538,23,25c0,0.553,0.447,1,1,1s1-0.447,1-1c0-2.754-1.246-5.219-3.2-6.871  C24.667,14.379,29.388,12,34.085,12c7.745,0,14.177,6.135,14.848,13.888c-1.022-0.072-2.552-0.109-4.083,0.124  c-0.546,0.083-0.921,0.593-0.838,1.139c0.075,0.495,0.501,0.85,0.987,0.85c0.05,0,0.101-0.004,0.151-0.012  c2.227-0.337,4.548-0.021,4.684-0.002C54.49,28.872,58,33.161,58,37.972C58,43.501,53.501,48,47.972,48z" transform="matrix(1 0 0 1 85 77)" id="L1_8" fill="#d4cbc5"/><g transform="matrix(0.1171875 0 0 0.1171875 278 296)" id="L1_12"><path d="m360 8h-208a32.042 32.042 0 0 0 -32 32v432a32.042 32.042 0 0 0 32 32h208a32.042 32.042 0 0 0 32-32v-432a32.042 32.042 0 0 0 -32-32zm-66.56 16-4.5 16h-66.69l-4-16zm82.56 448a16.021 16.021 0 0 1 -16 16h-208a16.021 16.021 0 0 1 -16-16v-432a16.021 16.021 0 0 1 16-16h49.75l6.49 25.94a8 8 0 0 0 7.76 6.06h79a8 8 0 0 0 7.7-5.83l7.36-26.17h49.94a16.021 16.021 0 0 1 16 16z" fill="#d4cbc5"/><path d="m216 456h-56a8 8 0 0 0 0 16h56a8 8 0 0 0 0-16z" fill="#d4cbc5"/><path d="m248 456h-8a8 8 0 0 0 0 16h8a8 8 0 0 0 0-16z" fill="#d4cbc5"/><path d="m284.116 209.14a8 8 0 0 0 -10.976 2.744l-48 80a8 8 0 1 0 13.72 8.232l48-80a8 8 0 0 0 -2.744-10.976z" fill="#d4cbc5"/><path d="m310.247 211a8 8 0 0 0 -12.494 10l28 35-28 35a8 8 0 0 0 12.494 10l32-40a8 8 0 0 0 0-10z" fill="#d4cbc5"/><path d="m201.753 301a8 8 0 1 0 12.494-10l-28-35 28-35a8 8 0 1 0 -12.494-10l-32 40a8 8 0 0 0 0 10z" fill="#d4cbc5"/></g><g transform="matrix(0.1171875 0 0 0.1171875 308 220)" id="L1_14"><path d="M349.657,18.343A8,8,0,0,0,344,16H120A56.063,56.063,0,0,0,64,72V440a56.063,56.063,0,0,0,56,56H392a56.063,56.063,0,0,0,56-56V120a8,8,0,0,0-2.343-5.657ZM352,43.313,420.687,112H392a40.045,40.045,0,0,1-40-40ZM120,32H336V72a56.063,56.063,0,0,0,56,56h40V352H80V72A40.045,40.045,0,0,1,120,32ZM392,480H120a40.045,40.045,0,0,1-40-40V368H432v72A40.045,40.045,0,0,1,392,480Z" fill="#d4cbc5"/><path d="M240,384a8,8,0,0,0-8,8v48a8,8,0,0,1-16,0,8,8,0,0,0-16,0,24,24,0,0,0,48,0V392A8,8,0,0,0,240,384Z" fill="#d4cbc5"/><path d="M288,400h16a8,8,0,0,0,0-16H288a24,24,0,0,0,0,48,8,8,0,0,1,0,16H272a8,8,0,0,0,0,16h16a24,24,0,0,0,0-48,8,8,0,0,1,0-16Z" fill="#d4cbc5"/><circle cx="288" cy="216" r="8" fill="#d4cbc5"/><circle cx="224" cy="216" r="8" fill="#d4cbc5"/><circle cx="256" cy="216" r="8" fill="#d4cbc5"/><path d="M152,224a8.009,8.009,0,0,1,8,8v32a24.028,24.028,0,0,0,24,24,8,8,0,0,0,0-16,8.009,8.009,0,0,1-8-8V232a23.9,23.9,0,0,0-6.126-16A23.9,23.9,0,0,0,176,200V168a8.009,8.009,0,0,1,8-8,8,8,0,0,0,0-16,24.028,24.028,0,0,0-24,24v32a8.009,8.009,0,0,1-8,8,8,8,0,0,0,0,16Z" fill="#d4cbc5"/><path d="M336,264a8.009,8.009,0,0,1-8,8,8,8,0,0,0,0,16,24.028,24.028,0,0,0,24-24V232a8.009,8.009,0,0,1,8-8,8,8,0,0,0,0-16,8.009,8.009,0,0,1-8-8V168a24.028,24.028,0,0,0-24-24,8,8,0,0,0,0,16,8.009,8.009,0,0,1,8,8v32a23.9,23.9,0,0,0,6.126,16A23.9,23.9,0,0,0,336,232Z" fill="#d4cbc5"/></g><g transform="matrix(1.034482717514038 0 0 1.034482717514038 69 154)" id="L1_19"><path d="M50.949,12.187l-1.361-1.361l-9.504-9.505c-0.001-0.001-0.001-0.001-0.002-0.001l-0.77-0.771   C38.957,0.195,38.486,0,37.985,0H8.963C7.776,0,6.5,0.916,6.5,2.926V39v16.537V56c0,0.837,0.841,1.652,1.836,1.909   c0.051,0.014,0.1,0.033,0.152,0.043C8.644,57.983,8.803,58,8.963,58h40.074c0.16,0,0.319-0.017,0.475-0.048   c0.052-0.01,0.101-0.029,0.152-0.043C50.659,57.652,51.5,56.837,51.5,56v-0.463V39V13.978C51.5,13.211,51.407,12.644,50.949,12.187   z M39.5,3.565L47.935,12H39.5V3.565z M8.963,56c-0.071,0-0.135-0.025-0.198-0.049C8.61,55.877,8.5,55.721,8.5,55.537V41h41v14.537   c0,0.184-0.11,0.34-0.265,0.414C49.172,55.975,49.108,56,49.037,56H8.963z M8.5,39V2.926C8.5,2.709,8.533,2,8.963,2h28.595   C37.525,2.126,37.5,2.256,37.5,2.391V13.78c-0.532-0.48-1.229-0.78-2-0.78c-0.553,0-1,0.448-1,1s0.447,1,1,1c0.552,0,1,0.449,1,1v4   c0,1.2,0.542,2.266,1.382,3c-0.84,0.734-1.382,1.8-1.382,3v4c0,0.551-0.448,1-1,1c-0.553,0-1,0.448-1,1s0.447,1,1,1   c1.654,0,3-1.346,3-3v-4c0-1.103,0.897-2,2-2c0.553,0,1-0.448,1-1s-0.447-1-1-1c-1.103,0-2-0.897-2-2v-4   c0-0.771-0.301-1.468-0.78-2h11.389c0.135,0,0.265-0.025,0.391-0.058c0,0.015,0.001,0.021,0.001,0.036V39H8.5z" fill="#d4cbc5"/><path d="M20.034,45.954c0.241-0.306,0.515-0.521,0.82-0.649s0.627-0.191,0.964-0.191c0.301,0,0.59,0.06,0.868,0.178   s0.531,0.31,0.759,0.574l1.135-1.012c-0.374-0.364-0.798-0.638-1.271-0.82s-0.984-0.273-1.531-0.273   c-0.593,0-1.144,0.111-1.654,0.335s-0.955,0.549-1.333,0.978s-0.675,0.964-0.889,1.606c-0.214,0.643-0.321,1.388-0.321,2.235   s0.107,1.595,0.321,2.242c0.214,0.647,0.511,1.185,0.889,1.613s0.82,0.752,1.326,0.971s1.06,0.328,1.661,0.328   c0.547,0,1.058-0.091,1.531-0.273s0.897-0.456,1.271-0.82l-1.135-0.998c-0.237,0.265-0.499,0.456-0.786,0.574   s-0.595,0.178-0.923,0.178s-0.641-0.07-0.937-0.212s-0.561-0.364-0.793-0.67s-0.415-0.699-0.547-1.183s-0.203-1.066-0.212-1.75   c0.009-0.702,0.082-1.294,0.219-1.777S19.793,46.26,20.034,45.954z" fill="#d4cbc5"/><path d="M31.532,49.064c-0.314-0.228-0.654-0.422-1.019-0.581s-0.702-0.323-1.012-0.492s-0.569-0.364-0.779-0.588   s-0.314-0.518-0.314-0.882c0-0.146,0.036-0.299,0.109-0.458s0.173-0.303,0.301-0.431s0.273-0.234,0.438-0.321   s0.337-0.139,0.52-0.157c0.328-0.027,0.597-0.032,0.807-0.014s0.378,0.05,0.506,0.096s0.226,0.091,0.294,0.137   s0.13,0.082,0.185,0.109c0.009-0.009,0.036-0.055,0.082-0.137s0.101-0.185,0.164-0.308c0.064-0.123,0.132-0.255,0.205-0.396   s0.137-0.271,0.191-0.39c-0.265-0.173-0.61-0.299-1.039-0.376s-0.853-0.116-1.271-0.116c-0.41,0-0.8,0.063-1.169,0.191   s-0.692,0.313-0.971,0.554s-0.499,0.535-0.663,0.882s-0.246,0.743-0.246,1.189c0,0.492,0.104,0.902,0.314,1.23   s0.474,0.613,0.793,0.854s0.661,0.451,1.025,0.629s0.704,0.355,1.019,0.533s0.576,0.376,0.786,0.595s0.314,0.483,0.314,0.793   c0,0.511-0.148,0.896-0.444,1.155s-0.723,0.39-1.278,0.39c-0.183,0-0.378-0.019-0.588-0.055s-0.419-0.084-0.629-0.144   s-0.412-0.123-0.608-0.191s-0.357-0.139-0.485-0.212l-0.287,1.176c0.155,0.137,0.34,0.253,0.554,0.349s0.439,0.171,0.677,0.226   s0.472,0.094,0.704,0.116s0.458,0.034,0.677,0.034c0.511,0,0.966-0.077,1.367-0.232s0.738-0.362,1.012-0.622   s0.485-0.561,0.636-0.902s0.226-0.695,0.226-1.06c0-0.538-0.104-0.978-0.314-1.319S31.847,49.292,31.532,49.064z" fill="#d4cbc5"/><path d="M38.942,49.064c-0.314-0.228-0.654-0.422-1.019-0.581s-0.702-0.323-1.012-0.492s-0.569-0.364-0.779-0.588   s-0.314-0.518-0.314-0.882c0-0.146,0.036-0.299,0.109-0.458s0.173-0.303,0.301-0.431s0.273-0.234,0.438-0.321   s0.337-0.139,0.52-0.157c0.328-0.027,0.597-0.032,0.807-0.014s0.378,0.05,0.506,0.096s0.226,0.091,0.294,0.137   s0.13,0.082,0.185,0.109c0.009-0.009,0.036-0.055,0.082-0.137s0.101-0.185,0.164-0.308s0.132-0.255,0.205-0.396   s0.137-0.271,0.191-0.39c-0.265-0.173-0.61-0.299-1.039-0.376s-0.853-0.116-1.271-0.116c-0.41,0-0.8,0.063-1.169,0.191   s-0.692,0.313-0.971,0.554s-0.499,0.535-0.663,0.882s-0.246,0.743-0.246,1.189c0,0.492,0.104,0.902,0.314,1.23   s0.474,0.613,0.793,0.854s0.661,0.451,1.025,0.629s0.704,0.355,1.019,0.533s0.576,0.376,0.786,0.595s0.314,0.483,0.314,0.793   c0,0.511-0.148,0.896-0.444,1.155s-0.723,0.39-1.278,0.39c-0.183,0-0.378-0.019-0.588-0.055s-0.419-0.084-0.629-0.144   s-0.412-0.123-0.608-0.191s-0.357-0.139-0.485-0.212l-0.287,1.176c0.155,0.137,0.34,0.253,0.554,0.349s0.439,0.171,0.677,0.226   s0.472,0.094,0.704,0.116s0.458,0.034,0.677,0.034c0.511,0,0.966-0.077,1.367-0.232s0.738-0.362,1.012-0.622   s0.485-0.561,0.636-0.902s0.226-0.695,0.226-1.06c0-0.538-0.104-0.978-0.314-1.319S39.257,49.292,38.942,49.064z" fill="#d4cbc5"/><path d="M20.5,20v-4c0-0.551,0.448-1,1-1c0.553,0,1-0.448,1-1s-0.447-1-1-1c-1.654,0-3,1.346-3,3v4c0,1.103-0.897,2-2,2   c-0.553,0-1,0.448-1,1s0.447,1,1,1c1.103,0,2,0.897,2,2v4c0,1.654,1.346,3,3,3c0.553,0,1-0.448,1-1s-0.447-1-1-1   c-0.552,0-1-0.449-1-1v-4c0-1.2-0.542-2.266-1.382-3C19.958,22.266,20.5,21.2,20.5,20z" fill="#d4cbc5"/></g><path d="M49,0c-3.309,0-6,2.691-6,6c0,1.035,0.263,2.009,0.726,2.86l-9.829,9.829C32.542,17.634,30.846,17,29,17  s-3.542,0.634-4.898,1.688l-7.669-7.669C16.785,10.424,17,9.74,17,9c0-2.206-1.794-4-4-4S9,6.794,9,9s1.794,4,4,4  c0.74,0,1.424-0.215,2.019-0.567l7.669,7.669C21.634,21.458,21,23.154,21,25s0.634,3.542,1.688,4.897L10.024,42.562  C8.958,41.595,7.549,41,6,41c-3.309,0-6,2.691-6,6s2.691,6,6,6s6-2.691,6-6c0-1.035-0.263-2.009-0.726-2.86l12.829-12.829  c1.106,0.86,2.44,1.436,3.898,1.619v10.16c-2.833,0.478-5,2.942-5,5.91c0,3.309,2.691,6,6,6s6-2.691,6-6c0-2.967-2.167-5.431-5-5.91  v-10.16c1.458-0.183,2.792-0.759,3.898-1.619l7.669,7.669C41.215,39.576,41,40.26,41,41c0,2.206,1.794,4,4,4s4-1.794,4-4  s-1.794-4-4-4c-0.74,0-1.424,0.215-2.019,0.567l-7.669-7.669C36.366,28.542,37,26.846,37,25s-0.634-3.542-1.688-4.897l9.665-9.665  C46.042,11.405,47.451,12,49,12c3.309,0,6-2.691,6-6S52.309,0,49,0z M11,9c0-1.103,0.897-2,2-2s2,0.897,2,2s-0.897,2-2,2  S11,10.103,11,9z M6,51c-2.206,0-4-1.794-4-4s1.794-4,4-4s4,1.794,4,4S8.206,51,6,51z M33,49c0,2.206-1.794,4-4,4s-4-1.794-4-4  s1.794-4,4-4S33,46.794,33,49z M29,31c-3.309,0-6-2.691-6-6s2.691-6,6-6s6,2.691,6,6S32.309,31,29,31z M47,41c0,1.103-0.897,2-2,2  s-2-0.897-2-2s0.897-2,2-2S47,39.897,47,41z M49,10c-2.206,0-4-1.794-4-4s1.794-4,4-4s4,1.794,4,4S51.206,10,49,10z" transform="matrix(1.0909091234207153 0 0 1.0909091234207153 279 32)" id="L1_23" fill="#d4cbc5"/><path d="M50.688,48.222C55.232,43.101,58,36.369,58,29c0-7.667-2.996-14.643-7.872-19.834c0,0,0-0.001,0-0.001  c-0.004-0.006-0.01-0.008-0.013-0.013c-5.079-5.399-12.195-8.855-20.11-9.126l-0.001-0.001L29.439,0.01C29.293,0.005,29.147,0,29,0  s-0.293,0.005-0.439,0.01l-0.563,0.015l-0.001,0.001c-7.915,0.271-15.031,3.727-20.11,9.126c-0.004,0.005-0.01,0.007-0.013,0.013  c0,0,0,0.001-0.001,0.002C2.996,14.357,0,21.333,0,29c0,7.369,2.768,14.101,7.312,19.222c0.006,0.009,0.006,0.019,0.013,0.028  c0.018,0.025,0.044,0.037,0.063,0.06c5.106,5.708,12.432,9.385,20.608,9.665l0.001,0.001l0.563,0.015C28.707,57.995,28.853,58,29,58  s0.293-0.005,0.439-0.01l0.563-0.015l0.001-0.001c8.185-0.281,15.519-3.965,20.625-9.685c0.013-0.017,0.034-0.022,0.046-0.04  C50.682,48.241,50.682,48.231,50.688,48.222z M2.025,30h12.003c0.113,4.239,0.941,8.358,2.415,12.217  c-2.844,1.029-5.563,2.409-8.111,4.131C4.585,41.891,2.253,36.21,2.025,30z M8.878,11.023c2.488,1.618,5.137,2.914,7.9,3.882  C15.086,19.012,14.15,23.44,14.028,28H2.025C2.264,21.493,4.812,15.568,8.878,11.023z M55.975,28H43.972  c-0.122-4.56-1.058-8.988-2.75-13.095c2.763-0.968,5.412-2.264,7.9-3.882C53.188,15.568,55.736,21.493,55.975,28z M28,14.963  c-2.891-0.082-5.729-0.513-8.471-1.283C21.556,9.522,24.418,5.769,28,2.644V14.963z M28,16.963V28H16.028  c0.123-4.348,1.035-8.565,2.666-12.475C21.7,16.396,24.821,16.878,28,16.963z M30,16.963c3.179-0.085,6.3-0.566,9.307-1.438  c1.631,3.91,2.543,8.127,2.666,12.475H30V16.963z M30,14.963V2.644c3.582,3.125,6.444,6.878,8.471,11.036  C35.729,14.45,32.891,14.881,30,14.963z M40.409,13.072c-1.921-4.025-4.587-7.692-7.888-10.835  c5.856,0.766,11.125,3.414,15.183,7.318C45.4,11.017,42.956,12.193,40.409,13.072z M17.591,13.072  c-2.547-0.879-4.991-2.055-7.294-3.517c4.057-3.904,9.327-6.552,15.183-7.318C22.178,5.38,19.512,9.047,17.591,13.072z M16.028,30  H28v10.038c-3.307,0.088-6.547,0.604-9.661,1.541C16.932,37.924,16.141,34.019,16.028,30z M28,42.038v13.318  c-3.834-3.345-6.84-7.409-8.884-11.917C21.983,42.594,24.961,42.124,28,42.038z M30,55.356V42.038  c3.039,0.085,6.017,0.556,8.884,1.4C36.84,47.947,33.834,52.011,30,55.356z M30,40.038V30h11.972  c-0.113,4.019-0.904,7.924-2.312,11.58C36.547,40.642,33.307,40.126,30,40.038z M43.972,30h12.003  c-0.228,6.21-2.559,11.891-6.307,16.348c-2.548-1.722-5.267-3.102-8.111-4.131C43.032,38.358,43.859,34.239,43.972,30z   M9.691,47.846c2.366-1.572,4.885-2.836,7.517-3.781c1.945,4.36,4.737,8.333,8.271,11.698C19.328,54.958,13.823,52.078,9.691,47.846  z M32.521,55.763c3.534-3.364,6.326-7.337,8.271-11.698c2.632,0.945,5.15,2.209,7.517,3.781  C44.177,52.078,38.672,54.958,32.521,55.763z" transform="matrix(1.034482717514038 0 0 1.034482717514038 190 -22)" id="L1_24" fill="#d4cbc5"/><g transform="matrix(0.1171875 0 0 0.1171875 236 109.00000290393831)" id="L1_26"><path d="M486.4,59.733H25.6c-14.138,0-25.6,11.461-25.6,25.6v341.333c0,14.138,11.461,25.6,25.6,25.6h460.8     c14.138,0,25.6-11.461,25.6-25.6V85.333C512,71.195,500.539,59.733,486.4,59.733z M494.933,426.667     c0,4.713-3.82,8.533-8.533,8.533H25.6c-4.713,0-8.533-3.82-8.533-8.533V85.333c0-4.713,3.82-8.533,8.533-8.533h460.8     c4.713,0,8.533,3.82,8.533,8.533V426.667z" fill="#d4cbc5"/><path d="M470.076,93.898c-2.255-0.197-4.496,0.51-6.229,1.966L266.982,261.239c-6.349,5.337-15.616,5.337-21.965,0L48.154,95.863     c-2.335-1.96-5.539-2.526-8.404-1.484c-2.865,1.042-4.957,3.534-5.487,6.537s0.582,6.06,2.917,8.02l196.864,165.367     c12.688,10.683,31.224,10.683,43.913,0L474.82,108.937c1.734-1.455,2.818-3.539,3.015-5.794c0.197-2.255-0.51-4.496-1.966-6.229     C474.415,95.179,472.331,94.095,470.076,93.898z" fill="#d4cbc5"/><path d="M164.124,273.13c-3.021-0.674-6.169,0.34-8.229,2.65l-119.467,128c-2.162,2.214-2.956,5.426-2.074,8.392     c0.882,2.967,3.301,5.223,6.321,5.897c3.021,0.674,6.169-0.34,8.229-2.65l119.467-128c2.162-2.214,2.956-5.426,2.074-8.392     C169.563,276.061,167.145,273.804,164.124,273.13z" fill="#d4cbc5"/><path d="M356.105,275.78c-2.059-2.31-5.208-3.324-8.229-2.65c-3.021,0.674-5.439,2.931-6.321,5.897     c-0.882,2.967-0.088,6.178,2.074,8.392l119.467,128c3.24,3.318,8.536,3.442,11.927,0.278c3.391-3.164,3.635-8.456,0.549-11.918     L356.105,275.78z" fill="#d4cbc5"/></g><g transform="matrix(-0.08029220253229141 0 0 0.08029220253229141 199.5548038482666 47.4451961517334)" id="L1_29"><path d="M310,190c-5.52,0-10,4.48-10,10s4.48,10,10,10c5.52,0,10-4.48,10-10S315.52,190,310,190z" fill="#d4cbc5"/><path d="M500.281,443.719l-133.48-133.48C388.546,277.485,400,239.555,400,200C400,89.72,310.28,0,200,0S0,89.72,0,200    s89.72,200,200,200c39.556,0,77.486-11.455,110.239-33.198l36.895,36.895c0.005,0.005,0.01,0.01,0.016,0.016l96.568,96.568    C451.276,507.838,461.319,512,472,512c10.681,0,20.724-4.162,28.278-11.716C507.837,492.731,512,482.687,512,472    S507.837,451.269,500.281,443.719z M305.536,345.727c0,0.001-0.001,0.001-0.002,0.002C274.667,368.149,238.175,380,200,380    c-99.252,0-180-80.748-180-180S100.748,20,200,20s180,80.748,180,180c0,38.175-11.851,74.667-34.272,105.535    C334.511,320.988,320.989,334.511,305.536,345.727z M326.516,354.793c10.35-8.467,19.811-17.928,28.277-28.277l28.371,28.371    c-8.628,10.183-18.094,19.65-28.277,28.277L326.516,354.793z M486.139,486.139c-3.78,3.78-8.801,5.861-14.139,5.861    s-10.359-2.081-14.139-5.861l-88.795-88.795c10.127-8.691,19.587-18.15,28.277-28.277l88.798,88.798    C489.919,461.639,492,466.658,492,472C492,477.342,489.919,482.361,486.139,486.139z" fill="#d4cbc5"/><path d="M200,40c-88.225,0-160,71.775-160,160s71.775,160,160,160s160-71.775,160-160S288.225,40,200,40z M200,340    c-77.196,0-140-62.804-140-140S122.804,60,200,60s140,62.804,140,140S277.196,340,200,340z" fill="#d4cbc5"/><path d="M312.065,157.073c-8.611-22.412-23.604-41.574-43.36-55.413C248.479,87.49,224.721,80,200,80c-5.522,0-10,4.478-10,10    c0,5.522,4.478,10,10,10c41.099,0,78.631,25.818,93.396,64.247c1.528,3.976,5.317,6.416,9.337,6.416    c1.192,0,2.405-0.215,3.584-0.668C311.472,168.014,314.046,162.229,312.065,157.073z" fill="#d4cbc5"/></g><g transform="matrix(0.11438025534152985 0 0 0.11438025534152985 37.12063992023468 248.12063992023468)" id="L1_30"><path d="m202.5,405.883v-120.208c0-4.143-3.357-7.5-7.5-7.5h-50c-4.143,0-7.5,3.357-7.5,7.5s3.357,7.5 7.5,7.5h42.5v112.708c-14.315,3.396-25,16.278-25,31.617 0,17.921 14.579,32.5 32.5,32.5s32.5-14.579 32.5-32.5c0-15.339-10.685-28.221-25-31.617zm-7.5,49.117c-9.649,0-17.5-7.851-17.5-17.5s7.851-17.5 17.5-17.5 17.5,7.851 17.5,17.5-7.851,17.5-17.5,17.5z" fill="#d4cbc5"/><path d="m282.5,405.883v-120.208c0-4.143-3.357-7.5-7.5-7.5h-49.999c-4.143,0-7.5,3.357-7.5,7.5s3.357,7.5 7.5,7.5h42.499v112.708c-14.315,3.396-25,16.278-25,31.617 0,17.921 14.579,32.5 32.5,32.5s32.5-14.579 32.5-32.5c0-15.339-10.685-28.221-25-31.617zm-7.5,49.117c-9.649,0-17.5-7.851-17.5-17.5s7.851-17.5 17.5-17.5 17.5,7.851 17.5,17.5-7.851,17.5-17.5,17.5z" fill="#d4cbc5"/><path d="m410,355c-15.339,0-28.221,10.685-31.617,25h-15.883v-94.325c0-4.143-3.357-7.5-7.5-7.5h-50c-4.143,0-7.5,3.357-7.5,7.5s3.357,7.5 7.5,7.5h42.5v94.325c0,4.143 3.357,7.5 7.5,7.5h23.383c3.396,14.315 16.278,25 31.617,25 17.921,0 32.5-14.579 32.5-32.5s-14.579-32.5-32.5-32.5zm0,50c-9.649,0-17.5-7.851-17.5-17.5s7.851-17.5 17.5-17.5 17.5,7.851 17.5,17.5-7.851,17.5-17.5,17.5z" fill="#d4cbc5"/><path d="M452.141,161.557c-10.108-12.55-23.837-21.848-39.113-26.592c-1.72-35.503-16.45-68.628-41.84-93.806   C344.422,14.617,308.922,0,271.226,0c-49.501,0-95.306,25.812-121.066,67.787c-6.264-1.975-12.775-2.972-19.434-2.972   c-30.637,0-56.983,21.626-63.336,51.105C28.044,126.127,0,161.988,0,203.101c0,49.667,40.406,90.074,90.073,90.074H107.5V380   H91.617C88.221,365.685,75.339,355,60,355c-17.921,0-32.5,14.579-32.5,32.5S42.079,420,60,420c15.339,0,28.221-10.685,31.617-25   H115c4.143,0,7.5-3.357,7.5-7.5V285.675c0-4.143-3.357-7.5-7.5-7.5H90.073C48.678,278.175,15,244.497,15,203.101   c0-35.723,25.395-66.688,60.383-73.627c3.155-0.625,5.561-3.193,5.978-6.383c3.229-24.671,24.451-43.275,49.365-43.275   c6.854,0,13.501,1.373,19.756,4.08c3.546,1.535,7.675,0.125,9.543-3.254C182.409,40.152,225.019,15,271.226,15   c69.384,0,126.34,56.438,126.966,125.812c0.031,3.466,2.433,6.458,5.809,7.239c30.028,6.949,51,33.351,51,64.203   c0,36.349-29.571,65.921-65.92,65.921H385c-4.143,0-7.5,3.357-7.5,7.5s3.357,7.5,7.5,7.5h4.08c44.619,0,80.92-36.301,80.92-80.921   C470,193.859,463.657,175.854,452.141,161.557z M60,405c-9.649,0-17.5-7.851-17.5-17.5S50.351,370,60,370s17.5,7.851,17.5,17.5   S69.649,405,60,405z" fill="#d4cbc5"/><path d="m365.692,148.605h0.069c4.142-0.038 7.469-3.426 7.432-7.568-0.112-12.354-2.444-24.443-6.931-35.931-1.508-3.858-5.856-5.765-9.715-4.258s-5.765,5.856-4.258,9.715c3.822,9.784 5.808,20.083 5.903,30.61 0.039,4.12 3.389,7.432 7.5,7.432z" fill="#d4cbc5"/><path d="m338.278,86.756c1.483,1.796 3.626,2.724 5.786,2.724 1.683,0 3.375-0.563 4.772-1.718 3.193-2.638 3.644-7.365 1.006-10.559-19.53-23.643-48.185-37.203-78.615-37.203-4.143,0-7.5,3.357-7.5,7.5s3.357,7.5 7.5,7.5c25.94,0 50.379,11.574 67.051,31.756z" fill="#d4cbc5"/></g><g transform="matrix(0.125 0 0 0.125 13 -28)" id="L1_31"><path d="M392,0H88C65.92,0.026,48.026,17.92,48,40v216c0.026,22.08,17.92,39.974,40,40h109.392l-11.424,40H160v16h160v-16h-25.968    l-11.424-40H392c22.08-0.026,39.974-17.92,40-40V40C431.974,17.92,414.08,0.026,392,0z M202.608,336l11.424-40h51.936l11.424,40    H202.608z M416,256c0,13.255-10.745,24-24,24H88c-13.255,0-24-10.745-24-24v-16h352V256z M416,224H64V40c0-13.255,10.745-24,24-24    h304c13.255,0,24,10.745,24,24V224z" fill="#d4cbc5"/><path d="M304,368H80c-4.418,0-8,3.582-8,8v96c0,4.418,3.582,8,8,8h224c4.418,0,8-3.582,8-8v-96C312,371.582,308.418,368,304,368z     M296,464H88v-80h208V464z" fill="#d4cbc5"/><rect x="104px" y="432px" width="16px" height="16px" fill="#d4cbc5"/><rect x="104px" y="400px" width="16px" height="16px" fill="#d4cbc5"/><rect x="136px" y="400px" width="16px" height="16px" fill="#d4cbc5"/><rect x="168px" y="400px" width="16px" height="16px" fill="#d4cbc5"/><rect x="232px" y="400px" width="16px" height="16px" fill="#d4cbc5"/><rect x="200px" y="400px" width="16px" height="16px" fill="#d4cbc5"/><rect x="264px" y="432px" width="16px" height="16px" fill="#d4cbc5"/><rect x="264px" y="400px" width="16px" height="16px" fill="#d4cbc5"/><rect x="136px" y="432px" width="112px" height="16px" fill="#d4cbc5"/><path d="M368,368c-22.091,0-40,17.909-40,40v32c0,22.091,17.909,40,40,40c22.091,0,40-17.909,40-40v-32    C408,385.909,390.091,368,368,368z M392,440c0,13.255-10.745,24-24,24s-24-10.745-24-24v-32c0-13.255,10.745-24,24-24    s24,10.745,24,24V440z" fill="#d4cbc5"/><rect x="360px" y="400px" width="16px" height="16px" fill="#d4cbc5"/><rect x="181px" y="120px" width="116px" height="15px" transform="matrix(0.2751 -0.9614 0.9614 0.2751 50.7457 323.5759)" fill="#d4cbc5"/><path d="M197.12,94.144l-10.24-12.288l-48,40c-3.393,2.83-3.85,7.874-1.02,11.268c0.309,0.37,0.65,0.712,1.02,1.02l48,40    l10.24-12.288L156.496,128L197.12,94.144z" fill="#d4cbc5"/><path d="M342.14,122.876c-0.309-0.37-0.65-0.712-1.02-1.02l-48-40l-10.24,12.288L323.504,128l-40.624,33.856l10.24,12.288l48-40    C344.513,131.314,344.97,126.27,342.14,122.876z" fill="#d4cbc5"/></g><g transform="matrix(1 0 0 1 -14 120)" id="L1_32"><path d="M10.5,6.5C8.019,6.5,6,8.519,6,11s2.019,4.5,4.5,4.5S15,13.481,15,11S12.981,6.5,10.5,6.5z M10.5,13.5   C9.122,13.5,8,12.379,8,11s1.122-2.5,2.5-2.5S13,9.621,13,11S11.878,13.5,10.5,13.5z" fill="#d4cbc5"/><circle cx="50" cy="9" r="1" fill="#d4cbc5"/><circle cx="46" cy="9" r="1" fill="#d4cbc5"/><circle cx="52" cy="12" r="1" fill="#d4cbc5"/><circle cx="48" cy="12" r="1" fill="#d4cbc5"/><circle cx="42" cy="9" r="1" fill="#d4cbc5"/><circle cx="44" cy="12" r="1" fill="#d4cbc5"/><circle cx="38" cy="9" r="1" fill="#d4cbc5"/><circle cx="40" cy="12" r="1" fill="#d4cbc5"/><circle cx="34" cy="9" r="1" fill="#d4cbc5"/><circle cx="36" cy="12" r="1" fill="#d4cbc5"/><path d="M60,16.892V5.108C60,2.567,57.933,0.5,55.392,0.5H4.608C2.067,0.5,0,2.567,0,5.108v11.783c0,1.469,0.703,2.764,1.777,3.608   C0.703,21.344,0,22.64,0,24.108v11.783c0,1.469,0.703,2.764,1.777,3.608C0.703,40.344,0,41.64,0,43.108v11.783   C0,57.433,2.067,59.5,4.608,59.5h50.783c2.541,0,4.608-2.067,4.608-4.608V43.108c0-1.469-0.703-2.764-1.777-3.608   C59.297,38.656,60,37.36,60,35.892V24.108c0-1.469-0.703-2.764-1.777-3.608C59.297,19.656,60,18.36,60,16.892z M58,43.108v11.783   c0,1.438-1.17,2.608-2.608,2.608H4.608C3.17,57.5,2,56.33,2,54.892V43.108C2,41.67,3.17,40.5,4.608,40.5h50.783   C56.83,40.5,58,41.67,58,43.108z M58,24.108v11.783c0,1.438-1.17,2.608-2.608,2.608H4.608C3.17,38.5,2,37.33,2,35.892V24.108   C2,22.67,3.17,21.5,4.608,21.5h50.783C56.83,21.5,58,22.67,58,24.108z M4.608,19.5C3.17,19.5,2,18.33,2,16.892V5.108   C2,3.67,3.17,2.5,4.608,2.5h50.783C56.83,2.5,58,3.67,58,5.108v11.783c0,1.438-1.17,2.608-2.608,2.608H4.608z" fill="#d4cbc5"/><path d="M10.5,34.5c2.481,0,4.5-2.019,4.5-4.5s-2.019-4.5-4.5-4.5S6,27.519,6,30S8.019,34.5,10.5,34.5z M10.5,27.5   c1.378,0,2.5,1.121,2.5,2.5s-1.122,2.5-2.5,2.5S8,31.379,8,30S9.122,27.5,10.5,27.5z" fill="#d4cbc5"/><circle cx="50" cy="28" r="1" fill="#d4cbc5"/><circle cx="46" cy="28" r="1" fill="#d4cbc5"/><circle cx="52" cy="31" r="1" fill="#d4cbc5"/><circle cx="48" cy="31" r="1" fill="#d4cbc5"/><circle cx="42" cy="28" r="1" fill="#d4cbc5"/><circle cx="44" cy="31" r="1" fill="#d4cbc5"/><circle cx="38" cy="28" r="1" fill="#d4cbc5"/><circle cx="40" cy="31" r="1" fill="#d4cbc5"/><circle cx="34" cy="28" r="1" fill="#d4cbc5"/><circle cx="36" cy="31" r="1" fill="#d4cbc5"/><path d="M10.5,53.5c2.481,0,4.5-2.019,4.5-4.5s-2.019-4.5-4.5-4.5S6,46.519,6,49S8.019,53.5,10.5,53.5z M10.5,46.5   c1.378,0,2.5,1.121,2.5,2.5s-1.122,2.5-2.5,2.5S8,50.379,8,49S9.122,46.5,10.5,46.5z" fill="#d4cbc5"/><circle cx="50" cy="47" r="1" fill="#d4cbc5"/><circle cx="46" cy="47" r="1" fill="#d4cbc5"/><circle cx="52" cy="50" r="1" fill="#d4cbc5"/><circle cx="48" cy="50" r="1" fill="#d4cbc5"/><circle cx="42" cy="47" r="1" fill="#d4cbc5"/><circle cx="44" cy="50" r="1" fill="#d4cbc5"/><circle cx="38" cy="47" r="1" fill="#d4cbc5"/><circle cx="40" cy="50" r="1" fill="#d4cbc5"/><circle cx="34" cy="47" r="1" fill="#d4cbc5"/><circle cx="36" cy="50" r="1" fill="#d4cbc5"/></g><path d="M35,0C23.849,0,14.43,2.588,11.215,6.475C4.669,8.077,0.884,10.775,0.146,13.51C0.062,13.657,0,13.818,0,14v0.5V26v0.5V27  v11v0.5V39v12c0,0.162,0.043,0.315,0.117,0.451C1.298,56.346,11.864,60,25,60c11.24,0,20.579-2.68,23.786-6.518  c6.359-1.546,10.366-4.076,11.09-7C59.955,46.34,60,46.175,60,46V34v-0.5V22v-0.5v-12C60,4.895,51.238,0,35,0z M47.805,39.348  c-0.04,0.099-0.089,0.198-0.143,0.297c-0.067,0.123-0.142,0.246-0.231,0.369c-0.066,0.093-0.141,0.185-0.219,0.277  c-0.111,0.131-0.229,0.262-0.363,0.392c-0.081,0.079-0.17,0.157-0.26,0.236c-0.164,0.143-0.335,0.285-0.526,0.426  c-0.082,0.061-0.17,0.12-0.257,0.18c-0.226,0.156-0.462,0.311-0.721,0.463c-0.068,0.041-0.141,0.08-0.212,0.12  c-0.298,0.168-0.609,0.335-0.945,0.497c-0.043,0.021-0.088,0.041-0.132,0.061c-0.375,0.177-0.767,0.351-1.186,0.519  c-0.012,0.005-0.024,0.009-0.036,0.014c-2.271,0.907-5.176,1.67-8.561,2.17c-0.017,0.002-0.034,0.004-0.051,0.007  c-0.658,0.097-1.333,0.183-2.026,0.259c-0.113,0.012-0.232,0.02-0.346,0.032c-0.605,0.063-1.217,0.121-1.847,0.167  c-0.288,0.021-0.59,0.031-0.883,0.049c-0.474,0.028-0.943,0.059-1.429,0.076C26.637,45.984,25.827,46,25,46  s-1.637-0.016-2.432-0.044c-0.486-0.017-0.955-0.049-1.429-0.076c-0.293-0.017-0.595-0.028-0.883-0.049  c-0.63-0.046-1.242-0.104-1.847-0.167c-0.114-0.012-0.233-0.02-0.346-0.032c-0.693-0.076-1.368-0.163-2.026-0.259  c-0.017-0.002-0.034-0.004-0.051-0.007c-3.385-0.5-6.29-1.263-8.561-2.17c-0.012-0.004-0.024-0.009-0.036-0.014  c-0.419-0.168-0.812-0.342-1.186-0.519c-0.043-0.021-0.089-0.041-0.132-0.061c-0.336-0.162-0.647-0.328-0.945-0.497  c-0.07-0.04-0.144-0.079-0.212-0.12c-0.259-0.152-0.495-0.307-0.721-0.463c-0.086-0.06-0.175-0.119-0.257-0.18  c-0.191-0.141-0.362-0.283-0.526-0.426c-0.089-0.078-0.179-0.156-0.26-0.236c-0.134-0.13-0.252-0.26-0.363-0.392  c-0.078-0.092-0.153-0.184-0.219-0.277c-0.088-0.123-0.163-0.246-0.231-0.369c-0.054-0.099-0.102-0.198-0.143-0.297  c-0.049-0.121-0.088-0.242-0.116-0.363C2.041,38.823,2,38.661,2,38.5c0-0.113,0.013-0.226,0.031-0.338  C2.056,38.011,2.042,37.86,2,37.717v-7.424c0.028,0.026,0.063,0.051,0.092,0.077c0.218,0.192,0.44,0.383,0.69,0.567  C6.549,33.786,14.082,36,25,36c10.872,0,18.386-2.196,22.169-5.028c0.302-0.22,0.574-0.447,0.83-0.678L48,30.293v7.424  c-0.042,0.143-0.056,0.294-0.031,0.445C47.987,38.274,48,38.387,48,38.5c0,0.161-0.041,0.323-0.079,0.485  C47.892,39.106,47.854,39.227,47.805,39.348z M2.601,18.797c0.3,0.236,0.624,0.469,0.975,0.696c0.073,0.047,0.155,0.093,0.231,0.14  c0.294,0.183,0.605,0.362,0.932,0.538c0.121,0.065,0.242,0.129,0.367,0.193c0.365,0.186,0.748,0.367,1.151,0.542  c0.066,0.029,0.126,0.059,0.193,0.087c0.469,0.199,0.967,0.389,1.485,0.573c0.143,0.051,0.293,0.099,0.44,0.149  c0.412,0.139,0.838,0.272,1.279,0.401c0.159,0.046,0.315,0.094,0.478,0.138c0.585,0.162,1.189,0.316,1.823,0.458  c0.087,0.02,0.181,0.036,0.269,0.055c0.559,0.122,1.139,0.235,1.735,0.341c0.202,0.036,0.407,0.07,0.613,0.104  c0.567,0.093,1.151,0.178,1.75,0.256c0.154,0.02,0.301,0.043,0.457,0.062c0.744,0.09,1.514,0.167,2.305,0.233  c0.195,0.016,0.398,0.028,0.596,0.042c0.633,0.046,1.28,0.084,1.942,0.114c0.241,0.011,0.481,0.022,0.727,0.031  C23.212,23.979,24.09,24,25,24s1.788-0.021,2.65-0.05c0.245-0.009,0.485-0.02,0.727-0.031c0.662-0.03,1.309-0.068,1.942-0.114  c0.198-0.015,0.4-0.026,0.596-0.042c0.791-0.065,1.561-0.143,2.305-0.233c0.156-0.019,0.303-0.042,0.457-0.062  c0.599-0.078,1.182-0.163,1.75-0.256c0.206-0.034,0.411-0.068,0.613-0.104c0.596-0.106,1.176-0.219,1.735-0.341  c0.088-0.019,0.182-0.036,0.269-0.055c0.634-0.142,1.238-0.297,1.823-0.458c0.163-0.045,0.319-0.092,0.478-0.138  c0.441-0.129,0.867-0.262,1.279-0.401c0.147-0.05,0.297-0.098,0.44-0.149c0.518-0.184,1.017-0.374,1.485-0.573  c0.067-0.028,0.127-0.058,0.193-0.087c0.403-0.176,0.786-0.356,1.151-0.542c0.125-0.064,0.247-0.128,0.367-0.193  c0.327-0.175,0.638-0.354,0.932-0.538c0.076-0.047,0.158-0.093,0.231-0.14c0.351-0.227,0.675-0.459,0.975-0.696  c0.075-0.06,0.142-0.12,0.215-0.18c0.13-0.108,0.267-0.215,0.387-0.324v7.424c-0.042,0.143-0.056,0.294-0.031,0.445  C47.987,26.274,48,26.387,48,26.5c0,0.161-0.041,0.323-0.079,0.485c-0.028,0.121-0.067,0.241-0.116,0.363  c-0.04,0.099-0.089,0.198-0.143,0.297c-0.067,0.123-0.142,0.246-0.231,0.369c-0.066,0.093-0.141,0.185-0.219,0.277  c-0.111,0.131-0.229,0.262-0.363,0.392c-0.081,0.079-0.17,0.157-0.26,0.236c-0.164,0.143-0.335,0.285-0.526,0.426  c-0.082,0.061-0.17,0.12-0.257,0.18c-0.226,0.156-0.462,0.311-0.721,0.463c-0.068,0.041-0.141,0.08-0.212,0.12  c-0.298,0.168-0.609,0.335-0.945,0.497c-0.043,0.021-0.088,0.041-0.132,0.061c-0.375,0.177-0.767,0.351-1.186,0.519  c-0.012,0.005-0.024,0.009-0.036,0.014c-2.271,0.907-5.176,1.67-8.561,2.17c-0.017,0.002-0.034,0.004-0.051,0.007  c-0.658,0.097-1.333,0.183-2.026,0.259c-0.113,0.012-0.232,0.02-0.346,0.032c-0.605,0.063-1.217,0.121-1.847,0.167  c-0.288,0.021-0.59,0.031-0.883,0.049c-0.474,0.028-0.943,0.059-1.429,0.076C26.637,33.984,25.827,34,25,34  s-1.637-0.016-2.432-0.044c-0.486-0.017-0.955-0.049-1.429-0.076c-0.293-0.017-0.595-0.028-0.883-0.049  c-0.63-0.046-1.242-0.104-1.847-0.167c-0.114-0.012-0.233-0.02-0.346-0.032c-0.693-0.076-1.368-0.163-2.026-0.259  c-0.017-0.002-0.034-0.004-0.051-0.007c-3.385-0.5-6.29-1.263-8.561-2.17c-0.012-0.004-0.024-0.009-0.036-0.014  c-0.419-0.168-0.812-0.342-1.186-0.519c-0.043-0.021-0.089-0.041-0.132-0.061c-0.336-0.162-0.647-0.328-0.945-0.497  c-0.07-0.04-0.144-0.079-0.212-0.12c-0.259-0.152-0.495-0.307-0.721-0.463c-0.086-0.06-0.175-0.119-0.257-0.18  c-0.191-0.141-0.362-0.283-0.526-0.426c-0.089-0.078-0.179-0.156-0.26-0.236c-0.134-0.13-0.252-0.26-0.363-0.392  c-0.078-0.092-0.153-0.184-0.219-0.277c-0.088-0.123-0.163-0.246-0.231-0.369c-0.054-0.099-0.102-0.198-0.143-0.297  c-0.049-0.121-0.088-0.242-0.116-0.363C2.041,26.823,2,26.661,2,26.5c0-0.113,0.013-0.226,0.031-0.338  C2.056,26.011,2.042,25.86,2,25.717v-7.424c0.12,0.109,0.257,0.216,0.387,0.324C2.459,18.677,2.526,18.737,2.601,18.797z M50,39.09  V39v-0.5V38v-8.828c0.043-0.012,0.083-0.025,0.126-0.037c0.4-0.112,0.79-0.227,1.168-0.346c0.004-0.001,0.009-0.003,0.013-0.004  c2.961-0.936,5.22-2.099,6.693-3.427V33.5c0,0.116-0.015,0.232-0.035,0.349c-0.016,0.096-0.043,0.192-0.072,0.288  c-0.009,0.028-0.015,0.056-0.025,0.085c-0.036,0.105-0.081,0.21-0.133,0.315c-0.006,0.013-0.013,0.026-0.019,0.039  c-0.828,1.615-3.465,3.202-7.27,4.379C50.299,39,50.151,39.046,50,39.09z M58,13.347V21.5c0,0.116-0.015,0.232-0.035,0.349  c-0.016,0.096-0.043,0.192-0.072,0.288c-0.009,0.028-0.015,0.056-0.025,0.085c-0.036,0.105-0.081,0.21-0.133,0.315  c-0.006,0.013-0.013,0.026-0.019,0.039c-0.828,1.615-3.465,3.202-7.27,4.379C50.299,27,50.151,27.046,50,27.09V27v-0.5V26v-8.828  c0.084-0.023,0.161-0.049,0.244-0.072c0.23-0.065,0.454-0.133,0.677-0.2c0.189-0.057,0.378-0.115,0.561-0.174  c0.228-0.074,0.448-0.15,0.667-0.227c0.166-0.058,0.334-0.115,0.495-0.174c0.231-0.085,0.452-0.174,0.673-0.262  c0.137-0.055,0.279-0.108,0.412-0.164c0.256-0.108,0.5-0.219,0.742-0.332c0.087-0.04,0.179-0.079,0.263-0.119  c0.324-0.156,0.635-0.316,0.931-0.479c0.031-0.017,0.057-0.035,0.088-0.052c0.261-0.146,0.513-0.295,0.751-0.447  c0.084-0.054,0.159-0.109,0.24-0.163c0.176-0.117,0.35-0.235,0.512-0.356c0.089-0.066,0.169-0.134,0.253-0.201  c0.141-0.112,0.282-0.224,0.411-0.338C57.946,13.389,57.976,13.369,58,13.347z M35,2c13.555,0,23,3.952,23,7.5  c0,0.133-0.014,0.266-0.04,0.399c-0.008,0.044-0.025,0.087-0.036,0.131c-0.023,0.09-0.045,0.179-0.079,0.269  c-0.02,0.052-0.047,0.104-0.07,0.156c-0.037,0.081-0.073,0.162-0.119,0.243c-0.031,0.055-0.068,0.11-0.103,0.165  c-0.05,0.078-0.1,0.156-0.157,0.233c-0.042,0.056-0.089,0.112-0.135,0.167c-0.063,0.076-0.127,0.152-0.197,0.227  c-0.052,0.056-0.108,0.112-0.164,0.168c-0.075,0.074-0.153,0.149-0.236,0.223c-0.062,0.055-0.126,0.111-0.192,0.166  c-0.088,0.073-0.18,0.146-0.275,0.219c-0.071,0.054-0.143,0.109-0.218,0.163c-0.101,0.073-0.208,0.145-0.316,0.217  c-0.079,0.053-0.158,0.105-0.241,0.158c-0.116,0.073-0.237,0.145-0.36,0.216c-0.085,0.05-0.169,0.1-0.258,0.149  c-0.132,0.073-0.272,0.146-0.412,0.219c-0.089,0.046-0.175,0.093-0.267,0.138c-0.153,0.076-0.315,0.15-0.476,0.225  c-0.088,0.04-0.171,0.081-0.261,0.121c-0.213,0.094-0.434,0.187-0.659,0.278c-0.045,0.018-0.086,0.037-0.131,0.055  c-0.274,0.109-0.558,0.216-0.85,0.321c-0.081,0.029-0.168,0.057-0.25,0.085c-0.214,0.074-0.428,0.148-0.651,0.22  c-0.116,0.038-0.238,0.073-0.357,0.11c-0.161,0.05-0.322,0.099-0.487,0.147V14.5V14c0-0.113-0.027-0.22-0.065-0.322  c-0.014-0.04-0.027-0.078-0.046-0.115c-0.002-0.004-0.003-0.01-0.006-0.014c-0.284-1.177-1.122-2.279-2.396-3.279  c-0.007-0.006-0.013-0.012-0.021-0.017c-0.182-0.143-0.385-0.28-0.585-0.418c-3.547-2.511-10.075-4.479-19.335-4.786  C26.71,5.018,25.861,5,25,5c-0.854,0-1.703,0.017-2.545,0.048c-2.498,0.083-4.787,0.291-6.884,0.594C19.445,3.612,26.273,2,35,2z   M13.493,8.061c0.252-0.05,0.512-0.094,0.769-0.141c0.332-0.061,0.666-0.12,1.009-0.175c0.299-0.048,0.601-0.093,0.905-0.137  c0.337-0.048,0.681-0.093,1.028-0.136c0.294-0.037,0.587-0.075,0.885-0.107c0.599-0.065,1.209-0.122,1.833-0.17  c0.237-0.019,0.478-0.031,0.717-0.047c0.484-0.032,0.972-0.06,1.47-0.081c0.235-0.01,0.47-0.02,0.707-0.028  C23.534,7.017,24.258,7,25,7c0.827,0,1.637,0.016,2.433,0.044c0.48,0.017,0.943,0.048,1.411,0.075c0.3,0.017,0.607,0.029,0.902,0.05  c0.621,0.045,1.224,0.103,1.821,0.164c0.123,0.012,0.252,0.021,0.374,0.035c0.677,0.074,1.336,0.159,1.98,0.253  c0.033,0.005,0.068,0.009,0.1,0.013c3.369,0.498,6.261,1.256,8.526,2.157c0.025,0.01,0.052,0.02,0.077,0.03  c0.406,0.163,0.786,0.332,1.149,0.503c0.056,0.026,0.114,0.052,0.169,0.078c0.325,0.157,0.625,0.318,0.914,0.48  c0.08,0.045,0.164,0.09,0.241,0.136c0.249,0.147,0.477,0.296,0.696,0.447c0.095,0.065,0.191,0.131,0.28,0.197  c0.184,0.136,0.349,0.273,0.507,0.411c0.095,0.083,0.19,0.166,0.276,0.25c0.129,0.126,0.244,0.252,0.351,0.379  c0.081,0.096,0.16,0.192,0.228,0.289c0.086,0.119,0.159,0.239,0.225,0.359c0.056,0.102,0.105,0.203,0.146,0.304  c0.048,0.119,0.086,0.239,0.114,0.358C47.959,14.176,48,14.338,48,14.5c0,3.548-9.445,7.5-23,7.5S2,18.048,2,14.5  C2,12.08,6.399,9.475,13.493,8.061z M25,58c-13.036,0-22.401-3.703-22.968-7.162C2.024,50.793,2.014,50.749,2,50.707v-8.414  c0.028,0.026,0.063,0.051,0.092,0.077c0.218,0.192,0.44,0.383,0.69,0.567C6.549,45.786,14.082,48,25,48  c10.872,0,18.386-2.196,22.169-5.028c0.302-0.22,0.574-0.447,0.83-0.678L48,42.293v8.41c-0.014,0.044-0.024,0.089-0.032,0.135  c-0.033,0.204-0.103,0.409-0.196,0.613c-0.036,0.079-0.092,0.158-0.137,0.237C45.826,54.877,36.971,58,25,58z M57.968,45.838  c-0.317,1.941-3.314,3.891-7.972,5.255C49.999,51.063,50,51.031,50,51v-9.828c0.043-0.012,0.083-0.025,0.126-0.037  c0.4-0.112,0.79-0.227,1.168-0.346c0.004-0.001,0.009-0.003,0.013-0.004c2.961-0.936,5.22-2.099,6.693-3.427v8.346  C57.986,45.747,57.976,45.792,57.968,45.838z" transform="matrix(1 0 0 1 92 -11)" id="L1_33" fill="#d4cbc5"/><path d="M208.084,75.85V59.095c0-31.857-25.918-57.775-57.774-57.775h-1.046c-31.857,0-57.775,25.918-57.775,57.775v52.193  c0,21.663-17.624,39.287-39.286,39.287h-0.915C29.624,150.575,12,132.951,12,111.288V7.32c0-3.313-2.687-6-6-6s-6,2.687-6,6v103.968  c0,28.279,23.007,51.287,51.287,51.287h0.915c28.279,0,51.286-23.007,51.286-51.287V59.095c0-25.241,20.535-45.775,45.775-45.775  h1.046c25.24,0,45.774,20.535,45.774,45.775v16.808c-35.582,2.915-63.65,32.785-63.65,69.106v56.745  c0,38.246,31.114,69.36,69.359,69.36h1.28c24.798,0,47.87-13.378,60.214-34.914c1.648-2.875,0.653-6.542-2.222-8.189  c-2.873-1.647-6.54-0.653-8.188,2.222c-10.212,17.815-29.295,28.881-49.804,28.881h-1.28c-31.628,0-57.359-25.732-57.359-57.36  v-56.745c0-29.702,22.693-54.199,51.65-57.074v6.844v55.796h-32.867c-3.313,0-6,2.686-6,6s2.687,6,6,6h97.217v23.642  c0,3.313,2.687,6,6,6s6-2.687,6-6v-41.208C272.434,108.45,243.997,78.429,208.084,75.85z M208.084,150.575V94.779v-6.898  c29.29,2.549,52.35,27.189,52.35,57.128v5.566H208.084z" transform="matrix(0.12572486698627472 0 0 0.12572486698627472 254.85362601280212 200.87413735282712)" id="L1_35" fill="#d4cbc5"/><g transform="matrix(0.1042337715625763 0 0 0.1042337715625763 7.264339566230774 43.69437551498413)" id="L1_36"><path d="m464 96h-360a8 8 0 0 0 -8 8v40a8 8 0 0 0 8 8h192v32h-104a8 8 0 0 0 -8 8v40h-152a24.032 24.032 0 0 0 -24 24v136a24.032 24.032 0 0 0 24 24h320a24.032 24.032 0 0 0 24-24v-136a24.032 24.032 0 0 0 -24-24h-152v-32h104a8 8 0 0 0 8-8v-48a8 8 0 0 0 -8-8h-192v-24h352a8 8 0 0 0 0-16zm-112 152a8.011 8.011 0 0 1 8 8v136a8.011 8.011 0 0 1 -8 8h-320a8.011 8.011 0 0 1 -8-8v-136a8.011 8.011 0 0 1 8-8z" fill="#d4cbc5"/><path d="m248 352h-112a8 8 0 0 0 -8 8v24a8 8 0 0 0 8 8h112a8 8 0 0 0 8-8v-24a8 8 0 0 0 -8-8zm-8 24h-96v-8h96z" fill="#d4cbc5"/><path d="m144 312v24a8 8 0 0 0 8 8h24a8 8 0 0 0 8-8v-24a8 8 0 0 0 -8-8h-24a8 8 0 0 0 -8 8zm16 8h8v8h-8z" fill="#d4cbc5"/><path d="m200 312v24a8 8 0 0 0 8 8h24a8 8 0 0 0 8-8v-24a8 8 0 0 0 -8-8h-24a8 8 0 0 0 -8 8zm16 8h8v8h-8z" fill="#d4cbc5"/><path d="m40 344h24a8 8 0 0 0 8-8v-24a8 8 0 0 0 -8-8h-24a8 8 0 0 0 -8 8v24a8 8 0 0 0 8 8zm8-24h8v8h-8z" fill="#d4cbc5"/><path d="m128 312a8 8 0 0 0 -8-8h-24a8 8 0 0 0 -8 8v24a8 8 0 0 0 8 8h24a8 8 0 0 0 8-8zm-16 16h-8v-8h8z" fill="#d4cbc5"/><path d="m296 336v-24a8 8 0 0 0 -8-8h-24a8 8 0 0 0 -8 8v24a8 8 0 0 0 8 8h24a8 8 0 0 0 8-8zm-16-8h-8v-8h8z" fill="#d4cbc5"/><path d="m344 304h-24a8 8 0 0 0 -8 8v24a8 8 0 0 0 8 8h24a8 8 0 0 0 8-8v-24a8 8 0 0 0 -8-8zm-8 24h-8v-8h8z" fill="#d4cbc5"/><path d="m184 296h24a8 8 0 0 0 8-8v-24a8 8 0 0 0 -8-8h-24a8 8 0 0 0 -8 8v24a8 8 0 0 0 8 8zm8-24h8v8h-8z" fill="#d4cbc5"/><path d="m240 296h24a8 8 0 0 0 8-8v-24a8 8 0 0 0 -8-8h-24a8 8 0 0 0 -8 8v24a8 8 0 0 0 8 8zm8-24h8v8h-8z" fill="#d4cbc5"/><path d="m72 296h24a8 8 0 0 0 8-8v-24a8 8 0 0 0 -8-8h-24a8 8 0 0 0 -8 8v24a8 8 0 0 0 8 8zm8-24h8v8h-8z" fill="#d4cbc5"/><path d="m128 296h24a8 8 0 0 0 8-8v-24a8 8 0 0 0 -8-8h-24a8 8 0 0 0 -8 8v24a8 8 0 0 0 8 8zm8-24h8v8h-8z" fill="#d4cbc5"/><path d="m296 296h24a8 8 0 0 0 8-8v-24a8 8 0 0 0 -8-8h-24a8 8 0 0 0 -8 8v24a8 8 0 0 0 8 8zm8-24h8v8h-8z" fill="#d4cbc5"/><path d="m96 368h-56a8 8 0 0 0 0 16h56a8 8 0 0 0 0-16z" fill="#d4cbc5"/><path d="m344 368h-56a8 8 0 0 0 0 16h56a8 8 0 0 0 0-16z" fill="#d4cbc5"/><path d="m448 240a56.063 56.063 0 0 0 -56 56v64a56 56 0 0 0 112 0v-64a56.063 56.063 0 0 0 -56-56zm0 160a40.045 40.045 0 0 1 -40-40v-32h80v32a40.045 40.045 0 0 1 -40 40zm40-88h-80v-16a40 40 0 0 1 80 0z" fill="#d4cbc5"/><path d="m448 264a8 8 0 0 0 -8 8v24a8 8 0 0 0 16 0v-24a8 8 0 0 0 -8-8z" fill="#d4cbc5"/><path d="m488 112h8a8 8 0 0 0 0-16h-8a8 8 0 0 0 0 16z" fill="#d4cbc5"/></g><path d="M473.15,376.625c22.6-22.6,22.6-59.3,0-81.8c-22.6-22.6-59.3-22.6-81.8,0l-30.7,30.7c-8.5,8.5-22.4,8.5-30.9,0l-54.8-54.9    c-3.4-3.4-8-5.3-12.7-5.3c-4.8,0-9.4,1.9-12.7,5.3c-15,15-34.9,23.3-56.2,23.3c-21.3,0-41.2-8.3-56.2-23.3l-49.6-49.6l112.3-112.3    l49.6,49.6c13.8,13.8,22,32.1,23.1,51.5c0.6,9.6,8.5,17,18,17c0.3,0,0.7,0,1.1,0c9.9-0.6,17.5-9.1,16.9-19    c-1.6-28.3-13.6-54.9-33.6-74.9l-49.6-49.6l5.5-5.5c7-7,7-18.4,0-25.5c-7-7-18.4-7-25.5,0l-35.3,35.3l-61.2-61.2    c-7-7-18.4-7-25.5,0c-7,7-7,18.4,0,25.5l61.2,61.2l-52.6,52.6l-61.2-61.2c-7-7-18.4-7-25.5,0c-7,7-7,18.4,0,25.5l61.3,61.2    l-35.3,35.3c-7,7-7,18.4,0,25.5c3.5,3.5,8.1,5.3,12.7,5.3c4.6,0,9.2-1.8,12.7-5.3l5.5-5.5l49.6,49.6    c21.8,21.8,50.8,33.8,81.6,33.8c24.7,0,48.3-7.7,67.9-22.1l43.1,43.1c11.3,11.3,26.1,16.9,40.9,16.9s29.6-5.6,40.9-16.9l30.7-30.7    c8.5-8.5,22.4-8.5,30.9,0s8.5,22.4,0,30.9l-30.7,30.7c-10.9,10.9-16.9,25.4-16.9,40.9s6,30,16.9,40.9c3.5,3.5,8.1,5.3,12.7,5.3    c4.6,0,9.2-1.8,12.7-5.3c7-7,7-18.4,0-25.5c-4.1-4.1-6.4-9.6-6.4-15.4s2.3-11.3,6.4-15.4L473.15,376.625z" transform="matrix(0.07243676483631134 0 0 0.07243676483631134 177.24687054753304 113.20562980512318)" id="L1_38" fill="#d4cbc5"/><g transform="matrix(-0.5502673934429432 -0.44021392827552924 -0.44021392827552924 0.5502673934429432 199.7144396515542 305.6983960449776)" id="L1_39"><path d="M42.536,4H36V0H24v4h-6.536C15.554,4,14,5.554,14,7.464v49.072C14,58.446,15.554,60,17.464,60h25.071   C44.446,60,46,58.446,46,56.536V7.464C46,5.554,44.446,4,42.536,4z M26,2h8v2h-8V2z M44,56.536C44,57.344,43.343,58,42.536,58   H17.464C16.657,58,16,57.344,16,56.536V7.464C16,6.656,16.657,6,17.464,6H24h12h6.536C43.343,6,44,6.656,44,7.464V56.536z" fill="#d4cbc5"/><path d="M34,17.108c0.021-0.423-0.212-0.822-0.605-1.007l-0.78-0.319l-0.494,0.61L21.204,34H27l0.002,12.884   c-0.022,0.412,0.201,0.813,0.58,1.003l0.795,0.351l0.506-0.636L38.653,29H34V17.108z M35.347,31l-6.345,12.105L29,32h-4.204   L32,20.372V31H35.347z" fill="#d4cbc5"/></g><g transform="matrix(0.07181553542613983 0 0 0.07181553542613983 222.6152229309082 56.6152229309082)" id="L1_41"><path d="m256 0c-141.159 0-256 114.841-256 256s114.841 256 256 256 256-114.841 256-256-114.841-256-256-256zm0 482c-124.617 0-226-101.383-226-226s101.383-226 226-226 226 101.383 226 226-101.383 226-226 226z" fill="#d4cbc5"/><path d="m256 270c57.897 0 105-47.103 105-105s-47.103-105-105-105-105 47.103-105 105 47.103 105 105 105zm0-180c41.355 0 75 33.645 75 75s-33.645 75-75 75-75-33.645-75-75 33.645-75 75-75z" fill="#d4cbc5"/><path d="m424.649 335.443c-19.933-22.525-48.6-35.443-78.649-35.443h-180c-30.049 0-58.716 12.918-78.649 35.443l-7.11 8.035 5.306 9.325c34.817 61.187 100.131 99.197 170.453 99.197s135.636-38.01 170.454-99.198l5.306-9.325zm-168.649 86.557c-55.736 0-107.761-28.197-138.383-74.295 13.452-11.352 30.579-17.705 48.383-17.705h180c17.804 0 34.931 6.353 48.383 17.705-30.622 46.098-82.647 74.295-138.383 74.295z" fill="#d4cbc5"/></g><path d="M39.927,41.929c-0.524,0.524-0.975,1.1-1.365,1.709l-17.28-10.489c0.457-1.144,0.716-2.388,0.716-3.693  c0-1.305-0.259-2.549-0.715-3.693l17.284-10.409C40.342,18.142,43.454,20,46.998,20c5.514,0,10-4.486,10-10s-4.486-10-10-10  s-10,4.486-10,10c0,1.256,0.243,2.454,0.667,3.562L20.358,23.985c-1.788-2.724-4.866-4.529-8.361-4.529c-5.514,0-10,4.486-10,10  s4.486,10,10,10c3.495,0,6.572-1.805,8.36-4.529L37.661,45.43c-0.43,1.126-0.664,2.329-0.664,3.57c0,2.671,1.04,5.183,2.929,7.071  c1.949,1.949,4.51,2.924,7.071,2.924s5.122-0.975,7.071-2.924c1.889-1.889,2.929-4.4,2.929-7.071s-1.04-5.183-2.929-7.071  C50.169,38.029,43.826,38.029,39.927,41.929z M46.998,2c4.411,0,8,3.589,8,8s-3.589,8-8,8s-8-3.589-8-8S42.586,2,46.998,2z   M11.998,37.456c-4.411,0-8-3.589-8-8s3.589-8,8-8s8,3.589,8,8S16.409,37.456,11.998,37.456z M52.654,54.657  c-3.119,3.119-8.194,3.119-11.313,0c-1.511-1.511-2.343-3.521-2.343-5.657s0.832-4.146,2.343-5.657  c1.56-1.56,3.608-2.339,5.657-2.339s4.097,0.779,5.657,2.339c1.511,1.511,2.343,3.521,2.343,5.657S54.166,53.146,52.654,54.657z" transform="matrix(0.6025926470756531 0 0 0.6025926470756531 21.225024718699444 198.01883882284164)" id="L1_42" fill="#d4cbc5"/><path d="M429.742,319.31L82.49,0l-0.231,471.744l105.375-100.826l61.89,141.083l96.559-42.358l-61.89-141.083L429.742,319.31z     M306.563,454.222l-41.62,18.259l-67.066-152.879l-85.589,81.894l0.164-333.193l245.264,225.529l-118.219,7.512L306.563,454.222z" transform="matrix(0.07243470015874079 0.013413833363125552 -0.013413833363125552 0.07243470015874079 138.89062509184367 161.02271042834207)" id="L1_43" fill="#d4cbc5"/></defs><g fi:class="KUsePattern"><pattern id="pattern_L1_0" width="350" height="350" patternUnits="userSpaceOnUse"><use xlink:href="#L1_0" x="-350" y="-350"/><use xlink:href="#L1_0" x="0" y="-350"/><use xlink:href="#L1_0" x="350" y="-350"/><use xlink:href="#L1_0" x="-350" y="0"/><use xlink:href="#L1_0" x="0" y="0"/><use xlink:href="#L1_0" x="350" y="0"/><use xlink:href="#L1_0" x="-350" y="350"/><use xlink:href="#L1_0" x="0" y="350"/><use xlink:href="#L1_0" x="350" y="350"/></pattern><rect x="0" y="0" width="100%" height="100%" fill="url(#pattern_L1_0)"/></g><g fi:class="KUsePattern"><pattern id="pattern_L1_2" width="350" height="350" patternUnits="userSpaceOnUse"><use xlink:href="#L1_2" x="-350" y="-350"/><use xlink:href="#L1_2" x="0" y="-350"/><use xlink:href="#L1_2" x="350" y="-350"/><use xlink:href="#L1_2" x="-350" y="0"/><use xlink:href="#L1_2" x="0" y="0"/><use xlink:href="#L1_2" x="350" y="0"/><use xlink:href="#L1_2" x="-350" y="350"/><use xlink:href="#L1_2" x="0" y="350"/><use xlink:href="#L1_2" x="350" y="350"/></pattern><rect x="0" y="0" width="100%" height="100%" fill="url(#pattern_L1_2)"/></g><g fi:class="KUsePattern"><pattern id="pattern_L1_4" width="350" height="350" patternUnits="userSpaceOnUse"><use xlink:href="#L1_4" x="-350" y="-350"/><use xlink:href="#L1_4" x="0" y="-350"/><use xlink:href="#L1_4" x="350" y="-350"/><use xlink:href="#L1_4" x="-350" y="0"/><use xlink:href="#L1_4" x="0" y="0"/><use xlink:href="#L1_4" x="350" y="0"/><use xlink:href="#L1_4" x="-350" y="350"/><use xlink:href="#L1_4" x="0" y="350"/><use xlink:href="#L1_4" x="350" y="350"/></pattern><rect x="0" y="0" width="100%" height="100%" fill="url(#pattern_L1_4)"/></g><g fi:class="KUsePattern"><pattern id="pattern_L1_8" width="350" height="350" patternUnits="userSpaceOnUse"><use xlink:href="#L1_8" x="-350" y="-350"/><use xlink:href="#L1_8" x="0" y="-350"/><use xlink:href="#L1_8" x="350" y="-350"/><use xlink:href="#L1_8" x="-350" y="0"/><use xlink:href="#L1_8" x="0" y="0"/><use xlink:href="#L1_8" x="350" y="0"/><use xlink:href="#L1_8" x="-350" y="350"/><use xlink:href="#L1_8" x="0" y="350"/><use xlink:href="#L1_8" x="350" y="350"/></pattern><rect x="0" y="0" width="100%" height="100%" fill="url(#pattern_L1_8)"/></g><g fi:class="KUsePattern"><pattern id="pattern_L1_12" width="350" height="350" patternUnits="userSpaceOnUse"><use xlink:href="#L1_12" x="-350" y="-350"/><use xlink:href="#L1_12" x="0" y="-350"/><use xlink:href="#L1_12" x="350" y="-350"/><use xlink:href="#L1_12" x="-350" y="0"/><use xlink:href="#L1_12" x="0" y="0"/><use xlink:href="#L1_12" x="350" y="0"/><use xlink:href="#L1_12" x="-350" y="350"/><use xlink:href="#L1_12" x="0" y="350"/><use xlink:href="#L1_12" x="350" y="350"/></pattern><rect x="0" y="0" width="100%" height="100%" fill="url(#pattern_L1_12)"/></g><g fi:class="KUsePattern"><pattern id="pattern_L1_14" width="350" height="350" patternUnits="userSpaceOnUse"><use xlink:href="#L1_14" x="-350" y="-350"/><use xlink:href="#L1_14" x="0" y="-350"/><use xlink:href="#L1_14" x="350" y="-350"/><use xlink:href="#L1_14" x="-350" y="0"/><use xlink:href="#L1_14" x="0" y="0"/><use xlink:href="#L1_14" x="350" y="0"/><use xlink:href="#L1_14" x="-350" y="350"/><use xlink:href="#L1_14" x="0" y="350"/><use xlink:href="#L1_14" x="350" y="350"/></pattern><rect x="0" y="0" width="100%" height="100%" fill="url(#pattern_L1_14)"/></g><g fi:class="KUsePattern"><pattern id="pattern_L1_19" width="350" height="350" patternUnits="userSpaceOnUse"><use xlink:href="#L1_19" x="-350" y="-350"/><use xlink:href="#L1_19" x="0" y="-350"/><use xlink:href="#L1_19" x="350" y="-350"/><use xlink:href="#L1_19" x="-350" y="0"/><use xlink:href="#L1_19" x="0" y="0"/><use xlink:href="#L1_19" x="350" y="0"/><use xlink:href="#L1_19" x="-350" y="350"/><use xlink:href="#L1_19" x="0" y="350"/><use xlink:href="#L1_19" x="350" y="350"/></pattern><rect x="0" y="0" width="100%" height="100%" fill="url(#pattern_L1_19)"/></g><g fi:class="KUsePattern"><pattern id="pattern_L1_23" width="350" height="350" patternUnits="userSpaceOnUse"><use xlink:href="#L1_23" x="-350" y="-350"/><use xlink:href="#L1_23" x="0" y="-350"/><use xlink:href="#L1_23" x="350" y="-350"/><use xlink:href="#L1_23" x="-350" y="0"/><use xlink:href="#L1_23" x="0" y="0"/><use xlink:href="#L1_23" x="350" y="0"/><use xlink:href="#L1_23" x="-350" y="350"/><use xlink:href="#L1_23" x="0" y="350"/><use xlink:href="#L1_23" x="350" y="350"/></pattern><rect x="0" y="0" width="100%" height="100%" fill="url(#pattern_L1_23)"/></g><g fi:class="KUsePattern"><pattern id="pattern_L1_24" width="350" height="350" patternUnits="userSpaceOnUse"><use xlink:href="#L1_24" x="-350" y="-350"/><use xlink:href="#L1_24" x="0" y="-350"/><use xlink:href="#L1_24" x="350" y="-350"/><use xlink:href="#L1_24" x="-350" y="0"/><use xlink:href="#L1_24" x="0" y="0"/><use xlink:href="#L1_24" x="350" y="0"/><use xlink:href="#L1_24" x="-350" y="350"/><use xlink:href="#L1_24" x="0" y="350"/><use xlink:href="#L1_24" x="350" y="350"/></pattern><rect x="0" y="0" width="100%" height="100%" fill="url(#pattern_L1_24)"/></g><g fi:class="KUsePattern"><pattern id="pattern_L1_26" width="350" height="350" patternUnits="userSpaceOnUse"><use xlink:href="#L1_26" x="-350" y="-350"/><use xlink:href="#L1_26" x="0" y="-350"/><use xlink:href="#L1_26" x="350" y="-350"/><use xlink:href="#L1_26" x="-350" y="0"/><use xlink:href="#L1_26" x="0" y="0"/><use xlink:href="#L1_26" x="350" y="0"/><use xlink:href="#L1_26" x="-350" y="350"/><use xlink:href="#L1_26" x="0" y="350"/><use xlink:href="#L1_26" x="350" y="350"/></pattern><rect x="0" y="0" width="100%" height="100%" fill="url(#pattern_L1_26)"/></g><g fi:class="KUsePattern"><pattern id="pattern_L1_29" width="350" height="350" patternUnits="userSpaceOnUse"><use xlink:href="#L1_29" x="-350" y="-350"/><use xlink:href="#L1_29" x="0" y="-350"/><use xlink:href="#L1_29" x="350" y="-350"/><use xlink:href="#L1_29" x="-350" y="0"/><use xlink:href="#L1_29" x="0" y="0"/><use xlink:href="#L1_29" x="350" y="0"/><use xlink:href="#L1_29" x="-350" y="350"/><use xlink:href="#L1_29" x="0" y="350"/><use xlink:href="#L1_29" x="350" y="350"/></pattern><rect x="0" y="0" width="100%" height="100%" fill="url(#pattern_L1_29)"/></g><g fi:class="KUsePattern"><pattern id="pattern_L1_30" width="350" height="350" patternUnits="userSpaceOnUse"><use xlink:href="#L1_30" x="-350" y="-350"/><use xlink:href="#L1_30" x="0" y="-350"/><use xlink:href="#L1_30" x="350" y="-350"/><use xlink:href="#L1_30" x="-350" y="0"/><use xlink:href="#L1_30" x="0" y="0"/><use xlink:href="#L1_30" x="350" y="0"/><use xlink:href="#L1_30" x="-350" y="350"/><use xlink:href="#L1_30" x="0" y="350"/><use xlink:href="#L1_30" x="350" y="350"/></pattern><rect x="0" y="0" width="100%" height="100%" fill="url(#pattern_L1_30)"/></g><g fi:class="KUsePattern"><pattern id="pattern_L1_31" width="350" height="350" patternUnits="userSpaceOnUse"><use xlink:href="#L1_31" x="-350" y="-350"/><use xlink:href="#L1_31" x="0" y="-350"/><use xlink:href="#L1_31" x="350" y="-350"/><use xlink:href="#L1_31" x="-350" y="0"/><use xlink:href="#L1_31" x="0" y="0"/><use xlink:href="#L1_31" x="350" y="0"/><use xlink:href="#L1_31" x="-350" y="350"/><use xlink:href="#L1_31" x="0" y="350"/><use xlink:href="#L1_31" x="350" y="350"/></pattern><rect x="0" y="0" width="100%" height="100%" fill="url(#pattern_L1_31)"/></g><g fi:class="KUsePattern"><pattern id="pattern_L1_32" width="350" height="350" patternUnits="userSpaceOnUse"><use xlink:href="#L1_32" x="-350" y="-350"/><use xlink:href="#L1_32" x="0" y="-350"/><use xlink:href="#L1_32" x="350" y="-350"/><use xlink:href="#L1_32" x="-350" y="0"/><use xlink:href="#L1_32" x="0" y="0"/><use xlink:href="#L1_32" x="350" y="0"/><use xlink:href="#L1_32" x="-350" y="350"/><use xlink:href="#L1_32" x="0" y="350"/><use xlink:href="#L1_32" x="350" y="350"/></pattern><rect x="0" y="0" width="100%" height="100%" fill="url(#pattern_L1_32)"/></g><g fi:class="KUsePattern"><pattern id="pattern_L1_33" width="350" height="350" patternUnits="userSpaceOnUse"><use xlink:href="#L1_33" x="-350" y="-350"/><use xlink:href="#L1_33" x="0" y="-350"/><use xlink:href="#L1_33" x="350" y="-350"/><use xlink:href="#L1_33" x="-350" y="0"/><use xlink:href="#L1_33" x="0" y="0"/><use xlink:href="#L1_33" x="350" y="0"/><use xlink:href="#L1_33" x="-350" y="350"/><use xlink:href="#L1_33" x="0" y="350"/><use xlink:href="#L1_33" x="350" y="350"/></pattern><rect x="0" y="0" width="100%" height="100%" fill="url(#pattern_L1_33)"/></g><g fi:class="KUsePattern"><pattern id="pattern_L1_35" width="350" height="350" patternUnits="userSpaceOnUse"><use xlink:href="#L1_35" x="-350" y="-350"/><use xlink:href="#L1_35" x="0" y="-350"/><use xlink:href="#L1_35" x="350" y="-350"/><use xlink:href="#L1_35" x="-350" y="0"/><use xlink:href="#L1_35" x="0" y="0"/><use xlink:href="#L1_35" x="350" y="0"/><use xlink:href="#L1_35" x="-350" y="350"/><use xlink:href="#L1_35" x="0" y="350"/><use xlink:href="#L1_35" x="350" y="350"/></pattern><rect x="0" y="0" width="100%" height="100%" fill="url(#pattern_L1_35)"/></g><g fi:class="KUsePattern"><pattern id="pattern_L1_36" width="350" height="350" patternUnits="userSpaceOnUse"><use xlink:href="#L1_36" x="-350" y="-350"/><use xlink:href="#L1_36" x="0" y="-350"/><use xlink:href="#L1_36" x="350" y="-350"/><use xlink:href="#L1_36" x="-350" y="0"/><use xlink:href="#L1_36" x="0" y="0"/><use xlink:href="#L1_36" x="350" y="0"/><use xlink:href="#L1_36" x="-350" y="350"/><use xlink:href="#L1_36" x="0" y="350"/><use xlink:href="#L1_36" x="350" y="350"/></pattern><rect x="0" y="0" width="100%" height="100%" fill="url(#pattern_L1_36)"/></g><g fi:class="KUsePattern"><pattern id="pattern_L1_38" width="350" height="350" patternUnits="userSpaceOnUse"><use xlink:href="#L1_38" x="-350" y="-350"/><use xlink:href="#L1_38" x="0" y="-350"/><use xlink:href="#L1_38" x="350" y="-350"/><use xlink:href="#L1_38" x="-350" y="0"/><use xlink:href="#L1_38" x="0" y="0"/><use xlink:href="#L1_38" x="350" y="0"/><use xlink:href="#L1_38" x="-350" y="350"/><use xlink:href="#L1_38" x="0" y="350"/><use xlink:href="#L1_38" x="350" y="350"/></pattern><rect x="0" y="0" width="100%" height="100%" fill="url(#pattern_L1_38)"/></g><g fi:class="KUsePattern"><pattern id="pattern_L1_39" width="350" height="350" patternUnits="userSpaceOnUse"><use xlink:href="#L1_39" x="-350" y="-350"/><use xlink:href="#L1_39" x="0" y="-350"/><use xlink:href="#L1_39" x="350" y="-350"/><use xlink:href="#L1_39" x="-350" y="0"/><use xlink:href="#L1_39" x="0" y="0"/><use xlink:href="#L1_39" x="350" y="0"/><use xlink:href="#L1_39" x="-350" y="350"/><use xlink:href="#L1_39" x="0" y="350"/><use xlink:href="#L1_39" x="350" y="350"/></pattern><rect x="0" y="0" width="100%" height="100%" fill="url(#pattern_L1_39)"/></g><g fi:class="KUsePattern"><pattern id="pattern_L1_41" width="350" height="350" patternUnits="userSpaceOnUse"><use xlink:href="#L1_41" x="-350" y="-350"/><use xlink:href="#L1_41" x="0" y="-350"/><use xlink:href="#L1_41" x="350" y="-350"/><use xlink:href="#L1_41" x="-350" y="0"/><use xlink:href="#L1_41" x="0" y="0"/><use xlink:href="#L1_41" x="350" y="0"/><use xlink:href="#L1_41" x="-350" y="350"/><use xlink:href="#L1_41" x="0" y="350"/><use xlink:href="#L1_41" x="350" y="350"/></pattern><rect x="0" y="0" width="100%" height="100%" fill="url(#pattern_L1_41)"/></g><g fi:class="KUsePattern"><pattern id="pattern_L1_42" width="350" height="350" patternUnits="userSpaceOnUse"><use xlink:href="#L1_42" x="-350" y="-350"/><use xlink:href="#L1_42" x="0" y="-350"/><use xlink:href="#L1_42" x="350" y="-350"/><use xlink:href="#L1_42" x="-350" y="0"/><use xlink:href="#L1_42" x="0" y="0"/><use xlink:href="#L1_42" x="350" y="0"/><use xlink:href="#L1_42" x="-350" y="350"/><use xlink:href="#L1_42" x="0" y="350"/><use xlink:href="#L1_42" x="350" y="350"/></pattern><rect x="0" y="0" width="100%" height="100%" fill="url(#pattern_L1_42)"/></g><g fi:class="KUsePattern"><pattern id="pattern_L1_43" width="350" height="350" patternUnits="userSpaceOnUse"><use xlink:href="#L1_43" x="-350" y="-350"/><use xlink:href="#L1_43" x="0" y="-350"/><use xlink:href="#L1_43" x="350" y="-350"/><use xlink:href="#L1_43" x="-350" y="0"/><use xlink:href="#L1_43" x="0" y="0"/><use xlink:href="#L1_43" x="350" y="0"/><use xlink:href="#L1_43" x="-350" y="350"/><use xlink:href="#L1_43" x="0" y="350"/><use xlink:href="#L1_43" x="350" y="350"/></pattern><rect x="0" y="0" width="100%" height="100%" fill="url(#pattern_L1_43)"/></g></svg>