<?xml version="1.0" encoding="utf-8"?>
<svg id="master-artboard" viewBox="0 0 1400 980" version="1.1" xmlns="http://www.w3.org/2000/svg" x="0px" y="0px" enable-background="new 0 0 1400 980" width="1400px" height="980px"><rect id="ee-background" x="0" y="0" width="1400" height="980" style="fill: white; fill-opacity: 0; pointer-events: none;"/>
<g transform="matrix(1, 0, 0, 1, 0, 0)">
		<g>
			
		<g>
				<path d="M 0 0 L 1400 0 L 1400 980 L 0 980 L 0 0 Z" fill="#5FC4D0"/>
			</g><path d="M 503.088623046875 1019.0762939453125" style="fill: rgb(95, 196, 208); fill-opacity: 1; stroke: rgb(0, 0, 0); stroke-opacity: 1; stroke-width: 0; paint-order: fill;"/><path d="M 437.11962890625 875.9095458984375" style="fill: rgb(95, 196, 208); fill-opacity: 1; stroke: rgb(0, 0, 0); stroke-opacity: 1; stroke-width: 0; paint-order: fill;"/><path d="M 497.8018798828125 266.9722595214844 L 497.8018798828125 266.9722595214844" style="fill: rgb(95, 196, 208); fill-opacity: 1; stroke: rgb(0, 0, 0); stroke-opacity: 1; stroke-width: 0; paint-order: fill;"/></g>
	</g><path style="fill: rgb(119, 206, 218); fill-opacity: 1; stroke: rgb(0, 0, 0); stroke-opacity: 1; stroke-width: 0; paint-order: fill;" transform="matrix(0.6469611292300017, 0, 0, 0.6469611292300017, 349.8525131889012, 694.4639440619427)"/><path d="M 1183 490 C 1183 756.7535341682732 966.7535341682732 973 700 973 C 433.2464658317268 973 217.00000000000003 756.7535341682732 217 490 C 216.99999999999997 223.24646583172682 433.2464658317268 7.000000000000049 700 7 C 966.7535341682732 7.000000000000016 1183 223.24646583172682 1183 490 Z" fill="#77CEDA" transform="matrix(1, 0, 0, 1, 0, 0)" style="paint-order: fill; fill-opacity: 1;"/><path fill="#37A5AD" d="M 721.6836669921875 679.8465454101563 L 711.8827880859374 657.4733032226563 L 700.1275756835937 675.2991821289063 C 713.1275756835937 657.2991821289063 739.3547607421874 695.1069091796876 722.7547607421875 679.5069091796876 L 739.2663940429687 673.936181640625 C 725.7663940429687 661.336181640625 733.1439697265624 656.4396362304688 719.8439697265625 669.3396362304687 C 705.7439697265625 683.0396362304688 685.6403686523437 665.1089965820312 699.8403686523437 678.4089965820312 L 758.8008178710937 671.5646362304688 C 745.3008178710937 658.9646362304687 760.3723632812499 648.5724243164062 747.07236328125 661.4724243164062 C 732.97236328125 675.1724243164062 690.5060302734374 651.6086059570312 704.7060302734375 664.9086059570312 C 690.9060302734375 652.0086059570312 804.4 663.6999999999999 791.5 677.5 L 696.9741821289062 677.5 C 684.0741821289063 691.3 639.7094848632812 631.663818359375 653.5094848632813 644.563818359375 L 766.5 701 C 776.3 693.9 782.6 682.5 782.6 669.5 L 782.6 565.5 C 788.1 564.6 793.3000000000001 562.2 797.7 558.2 L 832.7 526.5 C 844.9000000000001 515.5 864.9415405273438 509.241015625 853.9415405273438 497.141015625 L 850.6413085937501 492.520654296875 C 842.04130859375 483.020654296875 812.8000000000001 472.40000000000003 801.6 477 L 832.7 448.9 C 844.9000000000001 437.9 858.3410156250001 421.0801635742187 847.3410156250001 408.98016357421875 L 851.3013427734376 405.0198669433594 C 842.7013427734375 395.5198669433594 812.8000000000001 394.8 801.6 399.4 L 832.7 371.29999999999995 C 844.9000000000001 360.29999999999995 856.3608520507813 344.1401977539062 845.3608520507813 332.0401977539062 L 849.3211791992188 326.7598022460937 C 840.7211791992188 317.2598022460937 812.8000000000001 317.2 801.6 321.79999999999995 L 832.7 293.69999999999993 C 844.9000000000001 282.69999999999993 859.0011108398438 263.8999999999999 848.0011108398438 251.79999999999993 L 848.0010498046876 248.49973754882805 C 837.0010498046876 236.29973754882806 805.0000000000001 238.69999999999993 792.9000000000001 249.69999999999993 L 782.6000000000001 258.99999999999994 L 782.6000000000001 74.8 C 782.6000000000001 53.3 765.2000000000002 36 743.8000000000002 36 L 485.3 36 C 463.8 36 446.5 53.4 446.5 74.8 L 446.5 366.3 L 435.6 351.6 C 424.1 336.1 402.3 332.90000000000003 386.8 344.40000000000003 L 386.8 344.40000000000003 C 371.3 355.90000000000003 368.1 377.70000000000005 379.6 393.20000000000005 L 446.5 483.50000000000006 L 446.5 669.5 C 446.5 691 463.9 708.3 485.3 708.3 L 522.6 708.3 L 522.7 773.6999999999999 L 508.1 773.6999999999999 L 508.5 980 L 734.1 980 L 734 923.1 C 736.1 923.4 738.2 923.5 740.3 923.4 L 682.8460815429687 919.9532592773437 L 686.971533203125 939.4130981445312 C 703.571533203125 954.9130981445312 691.4158569335938 955.4131591796875 708.5158569335937 941.5131591796875 L 712.0470214843749 947.7246459960937 L 589.14716796875 670.0002197265625 L 700.4102905273437 931.6368774414062 C 649.6374177455823 915.4327180534967 596.2166975589475 647.182058656033 681.3103637695312 674.339697265625 L 721.6836669921875 679.8465454101563 Z M 782.6 410.2 C 784.8000000000001 409.8 786.9 409.3 789 408.4 L 782.6 414.2 L 782.6 410.2 Z M 782.6 487.9 C 784.8000000000001 487.5 786.9 487 789 486.09999999999997 L 782.6 491.9 L 782.6 487.9 Z M 789 330.8 L 782.6 336.6 L 782.6 332.6 C 784.8 332.2 786.9 331.6 789 330.8 Z M 738.9 848.1 C 737.1999999999999 848.2 735.6 848.3000000000001 733.9 848.6 L 733.8 773.3000000000001 L 719.3 773.3000000000001 L 719.3 750.6 L 670.7304321289062 891.0229003906251 L 738.9 848.1 Z" transform="matrix(1, 0, 0, 1, 0, 0)" style="fill: rgb(81, 146, 173);"/>
<path d="M 900.8662719726562 429.84844970703125" style="fill: rgb(95, 196, 208); fill-opacity: 1; stroke: rgb(0, 0, 0); stroke-opacity: 1; stroke-width: 0; paint-order: fill;"/><path d="M 1121.2559814453125 593.4033813476562" style="fill: rgb(119, 206, 218); fill-opacity: 1; stroke: rgb(0, 0, 0); stroke-opacity: 1; stroke-width: 0; paint-order: fill;"/><path d="M 861.0585327148438 854.8046875" style="fill: rgb(119, 206, 218); fill-opacity: 1; stroke: rgb(0, 0, 0); stroke-opacity: 1; stroke-width: 0; paint-order: fill;"/><path d="M 940.3334350585938 568.7127685546875" style="fill: rgb(119, 206, 218); fill-opacity: 1; stroke: rgb(0, 0, 0); stroke-opacity: 1; stroke-width: 0; paint-order: fill;"/><g transform="matrix(1, 0, 0, 1, 0, 0)">
			<path fill="#F4B183" d="M420.7,344.4L420.7,344.4c-15.5,11.5-18.7,33.3-7.2,48.8l88.4,119.3c23,31,66.7,37.5,97.6,14.5l0,0&#10;&#9;&#9;&#9;&#9;l-130-175.3C458,336.2,436.1,333,420.7,344.4z"/>
			
				<path d="M 556.400024 603.599976 H 753.000031 V 788.099976 H 556.400024 V 603.599976 Z" transform="matrix(1 -1.987783e-003 1.987783e-003 1 -1.3818 1.3028)" fill="#F4B183"/><path d="M 770.5372314453125 981.0716552734375 L 767.7000122070312 773.2999877929688 L 542 773.7000122070312 C 542 773.7000122070312 542.4000244140625 965.869037167274 542.4000244140625 980 L 770.5372314453125 981.0716552734375 Z" fill="#1F2D3A" style="paint-order: fill; fill-opacity: 1;"/>
			
			<g>
				<path fill="#F4F4F4" d="M777.6,36H519.2c-21.5,0-38.8,17.4-38.8,38.8v594.7c0,21.5,17.4,38.8,38.8,38.8h258.4&#10;&#9;&#9;&#9;&#9;&#9;c21.5,0,38.8-17.4,38.8-38.8V74.8C816.5,53.4,799.1,36,777.6,36z" style="fill-opacity: 1;"/>
				
				<path d="M 495.600006 93.199997 H 801.200012 V 185.699997 H 495.600006 V 93.199997 Z" fill="#1F2D3A" style="fill-opacity: 1;"/>
				
				<text transform="matrix(1 0 0 1 610.0718 587.9437)" fill="#FFFFFF" font-family="'FranklinGothic-Demi'" font-size="24.1664" style="fill: rgb(255, 255, 255); font-family: FranklinGothic-Demi; font-size: 24.1664px; white-space: pre; fill-opacity: 1;">ORDER</text>
				<g>
					<path d="M 782.200027 336 A 133.800003 133.800003 0 0 1 648.400024 469.800003 A 133.800003 133.800003 0 0 1 514.600021 336 A 133.800003 133.800003 0 0 1 648.400024 202.199997 A 133.800003 133.800003 0 0 1 782.200027 336 Z" fill="#1F2D3A" style="fill-opacity: 1;"/>
					<g>
						<path fill="#FFFFFF" d="M648.4,450.7c-2.9,0-5.4-1.6-6.7-4.2l-74-157.6c-1.9-0.7-3.5-2.1-4.4-3.9l-6-12.8&#10;&#9;&#9;&#9;&#9;&#9;&#9;&#9;c-0.9-1.8-1-3.9-0.2-5.8c0.7-1.9,2.1-3.5,4-4.3c27.5-12.4,56.9-18.7,87.3-18.7s59.8,6.3,87.3,18.7c1.9,0.8,3.3,2.4,4,4.3&#10;&#9;&#9;&#9;&#9;&#9;&#9;&#9;c0.7,1.9,0.6,4-0.2,5.8l-6,12.8c-0.9,1.9-2.5,3.3-4.4,3.9l-74,157.6C653.8,449.1,651.3,450.7,648.4,450.7z" style="fill-opacity: 1;"/>
						<g>
							<g>
								<path fill="#FBCA85" d="M648.4,247.6c-31.1,0-60.6,7-86.9,19.5L645,444.9c1.3,2.8,5.4,2.8,6.7,0l83.6-177.9&#10;&#9;&#9;&#9;&#9;&#9;&#9;&#9;&#9;&#9;C709,254.6,679.5,247.6,648.4,247.6z" style="fill-opacity: 1;"/>
								<path fill="#FDBC52" d="M715.3,298.5c-3.9-2-8.6-0.7-13-1.2c-11-1.3-19.2-13.8-30.2-12.4c-6.2,0.8-10.8,5.9-16.4,8.7&#10;&#9;&#9;&#9;&#9;&#9;&#9;&#9;&#9;&#9;c-5,2.6-10.9,3.3-16.4,2c-6.8-1.6-12.4-6-18.7-9c-6.3-3-14.3-4.4-19.8-0.1c-3.3,2.5-5.4,6.8-9.3,8c-2.4,0.7-5,0.1-7.5,0.5&#10;&#9;&#9;&#9;&#9;&#9;&#9;&#9;&#9;&#9;c-2.9,0.5-5.5,2.4-7.3,4.7L645,444.9c1.3,2.8,5.4,2.8,6.7,0L719,301.9C718.1,300.5,716.9,299.3,715.3,298.5z" style="fill-opacity: 1;"/>
								<path fill="#F4A449" d="M560.6,270.6l6,12.8c0.9,1.9,3.1,2.7,5,2c23.8-9.4,49.6-14.6,76.7-14.6s53,5.2,76.7,14.6&#10;&#9;&#9;&#9;&#9;&#9;&#9;&#9;&#9;&#9;c1.9,0.8,4.1-0.1,5-2l6-12.8c0.9-2,0-4.4-2-5.3C708,253.6,679,247,648.4,247s-59.6,6.6-85.8,18.4&#10;&#9;&#9;&#9;&#9;&#9;&#9;&#9;&#9;&#9;C560.6,266.3,559.7,268.6,560.6,270.6z" style="fill-opacity: 1;"/>
								<g>
									<g>
										<path fill="#FBCA85" d="M584.1,261.3c1,0,1.9,0.6,2.3,1.5c0.5,1.2-0.1,2.7-1.4,3.2c-4.1,1.6-8.2,3.5-12,5.5&#10;&#9;&#9;&#9;&#9;&#9;&#9;&#9;&#9;&#9;&#9;&#9;c-1.2,0.6-2.7,0.2-3.3-1c-0.6-1.2-0.2-2.7,1-3.3c4-2.1,8.2-4,12.5-5.7C583.5,261.4,583.8,261.3,584.1,261.3z" style="fill-opacity: 1;"/>
									</g>
								</g>
								<g>
									<g>
										<path fill="#FBCA85" d="M646.6,250.2c14,0,23.4,1.5,24.2,1.6c1.3,0.2,2.2,1.5,2,2.8c-0.2,1.3-1.5,2.2-2.8,2&#10;&#9;&#9;&#9;&#9;&#9;&#9;&#9;&#9;&#9;&#9;&#9;c-0.4-0.1-39.2-6.2-78.2,6.9c-1.3,0.4-2.7-0.3-3.1-1.5c-0.4-1.3,0.3-2.6,1.5-3.1C611.1,251.9,631.5,250.2,646.6,250.2z" style="fill-opacity: 1;"/>
									</g>
								</g>
							</g>
							<path d="M 631.900024 315.299988 A 22.5 22.5 0 0 1 609.400024 337.799988 A 22.5 22.5 0 0 1 586.900024 315.299988 A 22.5 22.5 0 0 1 609.400024 292.799988 A 22.5 22.5 0 0 1 631.900024 315.299988 Z" fill="#E83D50" style="fill-opacity: 1;"/>
							<path fill="#E83D50" d="M617.5,379.9c-1,0-2,0.1-2.9,0.2l18.2,38.7c4.4-4.1,7.2-9.9,7.2-16.4&#10;&#9;&#9;&#9;&#9;&#9;&#9;&#9;&#9;C640,390,629.9,379.9,617.5,379.9z" style="fill-opacity: 1;"/>
							<path fill="#E83D50" d="M677.8,349.5c-12.4,0-22.5,10.1-22.5,22.5c0,11.6,8.8,21.2,20.2,22.4l18-38.4&#10;&#9;&#9;&#9;&#9;&#9;&#9;&#9;&#9;C689.5,352,684,349.5,677.8,349.5z" style="fill-opacity: 1;"/>
							<path fill="#FFFAC0" d="M688.1,312.1c-1.5-0.3-2.3-1.8-1.9-3.2c1-3.6,2.8-10.4,1.5-11.6c-0.4-0.4-0.9-0.5-1.5-0.5&#10;&#9;&#9;&#9;&#9;&#9;&#9;&#9;&#9;c-1.8,0.3-2.6,2.4-1.6,3.9c0.6,1,0.8,2.2-0.6,3.3c-2.9,2.4-10.7-1.2-10.4-9.4c0.2-8.2,8.7-14.8,19.1-13.8&#10;&#9;&#9;&#9;&#9;&#9;&#9;&#9;&#9;c10.4,1,16.2,5.6,17.9,13.1c1.7,7.5-7,12.6-9.2,10.2s1.7-4.1,1-5.6c-0.7-1.5-5.1-3.9-5.3-1.7c-0.2,2.2,5.1,10.7,3.4,11.9&#10;&#9;&#9;&#9;&#9;&#9;&#9;&#9;&#9;C699.1,309.7,693.1,313.1,688.1,312.1z" style="fill-opacity: 1;"/>
							<path fill="#FFFAC0" d="M610.6,365.7c-0.9-1.2-0.6-2.9,0.6-3.7c3.1-2.1,8.8-6.2,8.6-7.9c-0.1-0.6-0.4-1-0.8-1.3&#10;&#9;&#9;&#9;&#9;&#9;&#9;&#9;&#9;c-1.5-0.9-3.5,0.2-3.7,1.9c-0.1,1.1-0.8,2.2-2.6,2.2c-3.8,0-7.4-7.8-1.9-13.9c5.5-6.1,16.2-5.7,23.5,1.8&#10;&#9;&#9;&#9;&#9;&#9;&#9;&#9;&#9;c7.3,7.4,8.8,14.7,5.3,21.5c-3.5,6.8-13.5,5.1-13.6,1.9c-0.1-3.3,3.9-2.1,4.3-3.6c0.4-1.6-1.4-6.2-3-4.7&#10;&#9;&#9;&#9;&#9;&#9;&#9;&#9;&#9;c-1.6,1.5-3,11.4-5,11.3C620.6,370.9,613.8,369.7,610.6,365.7z" style="fill-opacity: 1;"/>
							<g>
								<path fill="#F05123" d="M654.4,277.9c-17,10.2-23,32-13.3,49.4c9.6,17.4,31.3,24,48.9,15.1c0.6-0.3,0.9-1.1,0.5-1.8&#10;&#9;&#9;&#9;&#9;&#9;&#9;&#9;&#9;&#9;l-34.4-62.3C655.9,277.8,655.1,277.6,654.4,277.9z" style="fill-opacity: 1;"/>
								<path fill="#EE2A24" d="M645.6,324.9c-8.9-16.2-4.4-36.2,9.8-47.1c-0.3-0.1-0.7-0.1-1,0.1c-17,10.2-23,32-13.3,49.4&#10;&#9;&#9;&#9;&#9;&#9;&#9;&#9;&#9;&#9;c9.6,17.4,31.3,24,48.9,15.1c0.3-0.2,0.5-0.5,0.6-0.8C673.9,347.9,654.6,341.1,645.6,324.9z" style="fill-opacity: 1;"/>
								<g>
									<path fill="#F36D4E" d="M674.2,311c-5.8,0.3-11.5,1.7-16.9,4c-1.2,0.5-2.5,1.2-3.3,2.3c-1.5,2.2-0.4,5.2,0.8,7.5&#10;&#9;&#9;&#9;&#9;&#9;&#9;&#9;&#9;&#9;&#9;c1.6,2.8,4.1,5.8,7.3,5.5c1.8-0.2,3.3-1.3,4.7-2.4c3.8-2.9,7.9-5.7,12.7-6.4c-1.7,3.2-2.9,6.6-3.6,10.1&#10;&#9;&#9;&#9;&#9;&#9;&#9;&#9;&#9;&#9;&#9;c-0.4,2.1-0.5,4.7,1.3,6c2,1.4,4.6,0,6.4-1.6c1-0.9,2-2,2.6-3.2L674.2,311z" style="fill-opacity: 1;"/>
									<path fill="#F36D4E" d="M655.6,283.9c-2.4,2-4.3,4.5-6,7.1c-1.1,1.7-2.3,3.6-2,5.6c0.2,1.9,1.7,3.5,3.5,4.3&#10;&#9;&#9;&#9;&#9;&#9;&#9;&#9;&#9;&#9;&#9;c1.7,0.9,3.7,1.1,5.6,1.4c4.6,0.6,9.2,1.2,13.8,1.8l-12.1-22C657.3,282.6,656.4,283.2,655.6,283.9z" style="fill-opacity: 1;"/>
								</g>
							</g>
							<path fill="#8DC63F" d="M639.3,373.6c-0.8-1.1-0.3-2.8,1.1-3.1c2.5-0.7,6-1.4,7.5-0.6c2.4,1.3,14.1,12.6,3.3,26.7&#10;&#9;&#9;&#9;&#9;&#9;&#9;&#9;&#9;c-0.4,0.5-1,0.8-1.6,0.8c-2.4,0-8-0.4-8.9-3.8C639.5,389.4,647.2,384.7,639.3,373.6z" style="fill-opacity: 1;"/>
							<path fill="#8DC63F" d="M615.2,292.2c-1.1,0.8-2.8,0.3-3.2-1.1c-0.7-2.5-1.5-6-0.6-7.5c1.3-2.4,12.6-14.1,26.7-3.3&#10;&#9;&#9;&#9;&#9;&#9;&#9;&#9;&#9;c0.5,0.4,0.8,1,0.8,1.6c0,2.4-0.4,8-3.8,8.9C631,291.9,626.4,284.2,615.2,292.2z" style="fill-opacity: 1;"/>
							<path fill="#F05123" d="M658.3,399c0.8-1.2,2.5-1.3,3.3-0.2c1.6,2.1,3.6,5,3.4,6.7c-0.3,2.8-6.5,17.8-23.6,13&#10;&#9;&#9;&#9;&#9;&#9;&#9;&#9;&#9;c-0.6-0.2-1.1-0.6-1.3-1.2c-0.9-2.2-2.6-7.6,0.3-9.7C643.7,405.1,650.9,410.5,658.3,399z" style="fill-opacity: 1;"/>
						</g>
					</g>
				</g>
				<g>
					<path fill="#E83D50" d="M547.3,102.9c-12.8,0-23.2,10.4-23.2,23.2c0,18.8,23.2,44.4,23.2,44.4s23.2-25.6,23.2-44.4&#10;&#9;&#9;&#9;&#9;&#9;&#9;C570.5,113.2,560.1,102.9,547.3,102.9z M547.3,136.5c-5.8,0-10.4-4.7-10.4-10.4c0-5.8,4.7-10.4,10.4-10.4&#10;&#9;&#9;&#9;&#9;&#9;&#9;c5.8,0,10.4,4.7,10.4,10.4C557.7,131.8,553.1,136.5,547.3,136.5z" style="fill-opacity: 1;"/>
					<g>
						<path d="M 772.699976 140.300003 A 30.6 30.6 0 0 1 742.099976 170.900003 A 30.6 30.6 0 0 1 711.499975 140.300003 A 30.6 30.6 0 0 1 742.099976 109.700003 A 30.6 30.6 0 0 1 772.699976 140.300003 Z" fill="#FFFFFF" style="fill-opacity: 1;"/>
						<path d="M 767.899975 140.300003 A 25.799999 25.799999 0 0 1 742.099976 166.100002 A 25.799999 25.799999 0 0 1 716.299976 140.300003 A 25.799999 25.799999 0 0 1 742.099976 114.500004 A 25.799999 25.799999 0 0 1 767.899975 140.300003 Z" fill="#1F2D3A" style="fill-opacity: 1;"/>
						<path d="M 748.199975 140.300003 A 6.1 6.1 0 0 1 742.099976 146.400003 A 6.1 6.1 0 0 1 735.999976 140.300003 A 6.1 6.1 0 0 1 742.099976 134.200003 A 6.1 6.1 0 0 1 748.199975 140.300003 Z" fill="#FFFFFF" style="fill-opacity: 1;"/>
						<path d="M 737.299988 102.400002 H 746.799988 V 107.300002 H 737.299988 V 102.400002 Z" fill="#FFFFFF" style="fill-opacity: 1;"/>
						
							<path d="M 758.200012 109.199997 H 767.700012 V 114.099997 H 758.200012 V 109.199997 Z" transform="matrix(0.8089 0.588 -0.588 0.8089 211.4361 -427.2812)" fill="#FFFFFF" style="fill-opacity: 1;"/>
						
							<path d="M 716.5 109.199997 H 726 V 114.099997 H 716.5 V 109.199997 Z" transform="matrix(-0.8089 0.588 -0.588 -0.8089 1370.2164 -222.1767)" fill="#FFFFFF" style="fill-opacity: 1;"/>
						<path d="M 741.400024 116.400002 H 742.900024 V 122.000001 H 741.400024 V 116.400002 Z" fill="#FFFFFF" style="fill-opacity: 1;"/>
						<path d="M 760.400024 139.600006 H 766.000024 V 141.100006 H 760.400024 V 139.600006 Z" fill="#FFFFFF" style="fill-opacity: 1;"/>
						<path d="M 741.400024 158.699997 H 742.900024 V 164.299997 H 741.400024 V 158.699997 Z" fill="#FFFFFF" style="fill-opacity: 1;"/>
						<path d="M 718.200012 139.600006 H 723.800012 V 141.100006 H 718.200012 V 139.600006 Z" fill="#FFFFFF" style="fill-opacity: 1;"/>
					</g>
				</g>
				<g>
					<g>
						<path fill="#1F2D3A" d="M556.8,475.1h-31.1c-7.8,0-14.1,6.3-14.1,14.1v31.1c0,7.8,6.3,14.1,14.1,14.1h31.1&#10;&#9;&#9;&#9;&#9;&#9;&#9;&#9;c7.8,0,14.1-6.3,14.1-14.1v-31.1C570.9,481.5,564.6,475.1,556.8,475.1z" style="fill-opacity: 1;"/>
						<g>
							<path d="M 530.599976 525.299988 H 552.799976 V 528.199988 H 530.599976 V 525.299988 Z" fill="#FFFFFF" style="fill-opacity: 1;"/>
							<path d="M 554.2000122070312 526.0999755859375 L 529.0999755859375 526.0999755859375 L 525.4000244140625 485 L 558 485 Z" fill="#E83D50" style="fill-opacity: 1;"/>
							<path d="M 541.7000122070312 485 L 525.4000244140625 485 L 529.0999755859375 526.0999755859375 L 541.7000122070312 526.0999755859375 Z" fill="#F16156" style="fill-opacity: 1;"/>
							<path d="M 525.400024 481.299988 H 558.000023 V 484.199988 H 525.400024 V 481.299988 Z" fill="#E83D50" style="fill-opacity: 1;"/>
							<path d="M 522.200012 483.299988 H 560.400013 V 488.299988 H 522.200012 V 483.299988 Z" fill="#FFFFFF" style="fill-opacity: 1;"/>
							<path d="M 551.600024 504.799988 A 9.7 9.7 0 0 1 541.900024 514.499988 A 9.7 9.7 0 0 1 532.200025 504.799988 A 9.7 9.7 0 0 1 541.900024 495.099988 A 9.7 9.7 0 0 1 551.600024 504.799988 Z" fill="#FFFFFF" style="fill-opacity: 1;"/>
						</g>
					</g>
					<g>
						<path fill="#1F2D3A" d="M627.8,475.1h-31.1c-7.8,0-14.1,6.3-14.1,14.1v31.1c0,7.8,6.3,14.1,14.1,14.1h31.1&#10;&#9;&#9;&#9;&#9;&#9;&#9;&#9;c7.8,0,14.1-6.3,14.1-14.1v-31.1C641.9,481.5,635.6,475.1,627.8,475.1z" style="fill-opacity: 1;"/>
						<g>
							<path fill="#FDBC52" d="M636.6,511.1H588c-1.3,0-2.4,1.1-2.4,2.4v5.5c0,1.3,1.1,2.4,2.4,2.4h48.7c1.3,0,2.4-1.1,2.4-2.4v-5.5&#10;&#9;&#9;&#9;&#9;&#9;&#9;&#9;&#9;C639.1,512.1,638,511.1,636.6,511.1z" style="fill-opacity: 1;"/>
							<path fill="#F89640" d="M636.6,517.6H588c-1.3,0-2.4-1.1-2.4-2.4v3.8c0,1.3,1.1,2.4,2.4,2.4h48.7c1.3,0,2.4-1.1,2.4-2.4v-3.8&#10;&#9;&#9;&#9;&#9;&#9;&#9;&#9;&#9;C639.1,516.5,638,517.6,636.6,517.6z" style="fill-opacity: 1;"/>
							<path fill="#E83D50" d="M637.2,505.4h-50.3c-0.6,0-1.1,0.5-1.1,1.1c0,0.6,0.5,1.1,1.1,1.1h50.3c0.6,0,1.1-0.5,1.1-1.1&#10;&#9;&#9;&#9;&#9;&#9;&#9;&#9;&#9;C638.3,505.9,637.8,505.4,637.2,505.4z" style="fill-opacity: 1;"/>
							<path fill="#8DC63F" d="M612.6,514.4c0.9-0.2,1.5-0.9,2.4-1.2c1.1-0.4,2.3-0.2,3.3,0.3c1.1,0.4,2.1,1,3.2,1.1&#10;&#9;&#9;&#9;&#9;&#9;&#9;&#9;&#9;c0.2,0,0.5,0,0.7-0.1c0.2-0.1,0.3-0.4,0.5-0.6c1-1.8,3.5-2.1,5.5-1.5c2,0.6,3.8,1.7,5.8,2.1c0.5,0.1,1.1,0.1,1.6-0.1&#10;&#9;&#9;&#9;&#9;&#9;&#9;&#9;&#9;c0.7-0.4,1-1.2,1.2-2c0.2-0.8,0.4-1.7-0.1-2.4c-0.5-0.8-1.6-0.9-2.6-0.9c-13,0-25.9,0-38.9,0c-2.6,0-5.3,0-7.8,0.4&#10;&#9;&#9;&#9;&#9;&#9;&#9;&#9;&#9;c-0.5,0.1-1.1,0.4-1,0.8c0.1,0.2,0.2,0.3,0.4,0.4c0.9,0.7,1.9,1.4,2.8,2.1c0.6,0.4,1.2,0.8,1.9,0.8c0.7,0,1.4-0.6,2.1-0.7&#10;&#9;&#9;&#9;&#9;&#9;&#9;&#9;&#9;c1.8-0.4,3.2,1.5,5,1.8c0.3,0.1,0.6,0.1,0.8-0.1c0.3-0.1,0.4-0.4,0.6-0.7c1.2-1.7,3.4-2.3,5.4-2.7c0.3-0.1,0.6-0.1,0.9-0.1&#10;&#9;&#9;&#9;&#9;&#9;&#9;&#9;&#9;c1.2,0,2.2,0.9,3.1,1.7C610.3,513.8,611.4,514.6,612.6,514.4z" style="fill-opacity: 1;"/>
							<path fill="#603913" d="M637.2,507.5h-50.3c-0.6,0-1.1,0.5-1.1,1.1c0,0.6,0.5,1.1,1.1,1.1h50.3c0.6,0,1.1-0.5,1.1-1.1&#10;&#9;&#9;&#9;&#9;&#9;&#9;&#9;&#9;C638.3,508,637.8,507.5,637.2,507.5z" style="fill-opacity: 1;"/>
							<path fill="#FDBC52" d="M626,488.2h-27.4c-7.2,0-13.1,5.9-13.1,13.1c0,2.2,1.8,4,4,4h45.6c2.2,0,4-1.8,4-4&#10;&#9;&#9;&#9;&#9;&#9;&#9;&#9;&#9;C639.1,494,633.2,488.2,626,488.2z" style="fill-opacity: 1;"/>
							<path fill="#F89640" d="M635.1,500.5h-45.6c-1.6,0-2.9-0.9-3.6-2.3c-0.2,1-0.4,2-0.4,3.1c0,2.2,1.8,4,4,4h45.6&#10;&#9;&#9;&#9;&#9;&#9;&#9;&#9;&#9;c2.2,0,4-1.8,4-4c0-1.1-0.1-2.1-0.4-3.1C638.1,499.5,636.7,500.5,635.1,500.5z" style="fill-opacity: 1;"/>
						</g>
					</g>
					<g>
						<path fill="#1F2D3A" d="M699.4,475.1h-31.1c-7.8,0-14.1,6.3-14.1,14.1v31.1c0,7.8,6.3,14.1,14.1,14.1h31.1&#10;&#9;&#9;&#9;&#9;&#9;&#9;&#9;c7.8,0,14.1-6.3,14.1-14.1v-31.1C713.5,481.5,707.2,475.1,699.4,475.1z" style="fill-opacity: 1;"/>
						<g>
							<path fill="#FDBC52" d="M683.9,481.3c-13,0-23.5,10.5-23.5,23.5c0,13,10.5,23.5,23.5,23.5c13,0,23.5-10.5,23.5-23.5&#10;&#9;&#9;&#9;&#9;&#9;&#9;&#9;&#9;C707.4,491.8,696.9,481.3,683.9,481.3z M683.9,513.1c-4.6,0-8.3-3.7-8.3-8.3c0-4.6,3.7-8.3,8.3-8.3c4.6,0,8.3,3.7,8.3,8.3&#10;&#9;&#9;&#9;&#9;&#9;&#9;&#9;&#9;C692.2,509.4,688.5,513.1,683.9,513.1z" style="fill-opacity: 1;"/>
							<path fill="#F593A1" d="M699.9,504.5c0.2-0.7,0.6-1.3,0.9-1.9c0.8-1.7,1.4-3.6,1.2-5.5c-0.2-1.9-1.4-3.7-3.1-4.4&#10;&#9;&#9;&#9;&#9;&#9;&#9;&#9;&#9;c-0.8-0.3-1.7-0.4-2.6-0.5c-1.6-0.3-3-1-4.2-2.1c-1.6-1.4-2.8-3.5-4.8-4.3c-1.5-0.7-2.8-0.4-4.3-0.1c-0.1,0-0.1,0-0.2,0&#10;&#9;&#9;&#9;&#9;&#9;&#9;&#9;&#9;c-1.4,0.2-2.8,0.3-4.2,0.9c-1.9,0.8-2.4,2.6-3.3,4.2c-1.6,2.6-6.4,1.3-8,3.9c-1,1.7,0.2,4-0.3,5.9c-0.3,1.2-1.2,2.2-1.8,3.2&#10;&#9;&#9;&#9;&#9;&#9;&#9;&#9;&#9;c-0.7,1.2-1.2,2.6-1.3,4c-0.1,0.8,0,1.6,0.3,2.4c0.3,0.7,1,1.3,1.4,1.9c1.3,1.8,1.6,4.2,2.7,6.2c0.3,0.6,0.7,1.1,1.3,1.4&#10;&#9;&#9;&#9;&#9;&#9;&#9;&#9;&#9;c1.3,0.7,2.9,0,4.4,0.2c1.9,0.2,3.4,1.7,5.1,2.6c1.8,0.9,4,1.1,6,1.2c1.5,0,3.1-0.1,4.1-1.1c0.5-0.5,0.8-1.1,1.3-1.5&#10;&#9;&#9;&#9;&#9;&#9;&#9;&#9;&#9;c1.1-0.9,2.6-0.8,4.1-0.8c1.4,0,2.9-0.2,4.1-0.8c1.3-0.6,2.4-1.7,2.9-3C703,512.5,698.8,508.4,699.9,504.5z M683.9,513.1&#10;&#9;&#9;&#9;&#9;&#9;&#9;&#9;&#9;c-4.6,0-8.3-3.7-8.3-8.3c0-4.6,3.7-8.3,8.3-8.3c4.6,0,8.3,3.7,8.3,8.3C692.2,509.4,688.5,513.1,683.9,513.1z" style="fill-opacity: 1;"/>
						</g>
					</g>
					<g>
						<path fill="#1F2D3A" d="M771.1,475.1H740c-7.8,0-14.1,6.3-14.1,14.1v31.1c0,7.8,6.3,14.1,14.1,14.1h31.1&#10;&#9;&#9;&#9;&#9;&#9;&#9;&#9;c7.8,0,14.1-6.3,14.1-14.1v-31.1C785.2,481.5,778.9,475.1,771.1,475.1z" style="fill-opacity: 1;"/>
						<g>
							<path fill="#FFD746" d="M742.9,483.3h-2.9c-0.3,0-0.6,0.3-0.6,0.6v22.9c0,0.3,0.3,0.6,0.6,0.6h2.9c0.3,0,0.6-0.3,0.6-0.6&#10;&#9;&#9;&#9;&#9;&#9;&#9;&#9;&#9;v-22.9C743.5,483.6,743.3,483.3,742.9,483.3z" style="fill-opacity: 1;"/>
							<path fill="#FFD746" d="M747.4,481.7h-2.9c-0.3,0-0.6,0.3-0.6,0.6v22.9c0,0.3,0.3,0.6,0.6,0.6h2.9c0.3,0,0.6-0.3,0.6-0.6&#10;&#9;&#9;&#9;&#9;&#9;&#9;&#9;&#9;v-22.9C748,481.9,747.7,481.7,747.4,481.7z" style="fill-opacity: 1;"/>
							<path fill="#FFD746" d="M752.3,486.9h-2.9c-0.3,0-0.6,0.3-0.6,0.6v22.9c0,0.3,0.3,0.6,0.6,0.6h2.9c0.3,0,0.6-0.3,0.6-0.6&#10;&#9;&#9;&#9;&#9;&#9;&#9;&#9;&#9;v-22.9C752.8,487.2,752.6,486.9,752.3,486.9z" style="fill-opacity: 1;"/>
							<path fill="#FFD746" d="M757.4,484.8h-2.9c-0.3,0-0.6,0.3-0.6,0.6v22.9c0,0.3,0.3,0.6,0.6,0.6h2.9c0.3,0,0.6-0.3,0.6-0.6&#10;&#9;&#9;&#9;&#9;&#9;&#9;&#9;&#9;v-22.9C758,485.1,757.7,484.8,757.4,484.8z" style="fill-opacity: 1;"/>
							<path fill="#FFD746" d="M762.4,484.1h-2.9c-0.3,0-0.6,0.3-0.6,0.6v22.9c0,0.3,0.3,0.6,0.6,0.6h2.9c0.3,0,0.6-0.3,0.6-0.6&#10;&#9;&#9;&#9;&#9;&#9;&#9;&#9;&#9;v-22.9C762.9,484.3,762.7,484.1,762.4,484.1z" style="fill-opacity: 1;"/>
							<path fill="#FFD746" d="M767.1,486h-2.9c-0.3,0-0.6,0.3-0.6,0.6v22.9c0,0.3,0.3,0.6,0.6,0.6h2.9c0.3,0,0.6-0.3,0.6-0.6v-22.9&#10;&#9;&#9;&#9;&#9;&#9;&#9;&#9;&#9;C767.7,486.3,767.4,486,767.1,486z" style="fill-opacity: 1;"/>
							<path fill="#FFD746" d="M772,481.3h-2.9c-0.3,0-0.6,0.3-0.6,0.6v22.9c0,0.3,0.3,0.6,0.6,0.6h2.9c0.3,0,0.6-0.3,0.6-0.6v-22.9&#10;&#9;&#9;&#9;&#9;&#9;&#9;&#9;&#9;C772.5,481.5,772.3,481.3,772,481.3z" style="fill-opacity: 1;"/>
							<path fill="#E83D50" d="M769,493.6c-1,6.5-6.6,11.5-13.4,11.5c-6.8,0-12.4-5-13.4-11.5h-5.2l3.7,34.7h29.9l3.7-34.7H769z" style="fill-opacity: 1;"/>
							<path fill="#F16156" d="M755.3,505c-6.7-0.1-12.1-5-13.2-11.4h-5.2l3.7,34.7h14.7V505z" style="fill-opacity: 1;"/>
						</g>
					</g>
				</g>
			<path fill="#E83D50" d="M700.7,558.1H596.1c-11.5,0-20.7,9.3-20.7,20.7s9.3,20.7,20.7,20.7h104.6c11.5,0,20.7-9.3,20.7-20.7&#10;&#9;&#9;&#9;&#9;&#9;S712.1,558.1,700.7,558.1z" style="fill-opacity: 1;"/><path d="M 495.600006 93.199997 H 801.200012 V 633.100021 H 495.600006 V 93.199997 Z" fill="#0D1B28" style="fill-opacity: 1;"/><path style="fill: rgb(232, 61, 80); fill-opacity: 1; stroke: rgb(0, 0, 0); stroke-opacity: 1; stroke-width: 0; paint-order: fill;" d="M 1066.9320068359375 288.5846252441406"/></g>
			<path fill="#F6C296" d="M789.6,323.2L789.6,323.2c11,12.2,29.8,13.1,41.9,2.1l35-31.7c12.2-11,13.1-29.8,2.1-41.9l0,0&#10;&#9;&#9;&#9;&#9;c-11-12.2-29.8-13.1-41.9-2.1l-35,31.7C779.6,292.2,778.6,311,789.6,323.2z" transform="matrix(1, 0, 0, 1, 20, 0)"/>
			<path fill="#F6C296" d="M789.6,400.8L789.6,400.8c11,12.2,29.8,13.1,41.9,2.1l35-31.7c12.2-11,13.1-29.8,2.1-41.9l0,0&#10;&#9;&#9;&#9;&#9;c-11-12.2-29.8-13.1-41.9-2.1l-35,31.7C779.6,369.9,778.6,388.7,789.6,400.8z" transform="matrix(1, 0, 0, 1, 20, 0)"/>
			<path fill="#F6C296" d="M789.6,478.5L789.6,478.5c11,12.2,29.8,13.1,41.9,2.1l35-31.7c12.2-11,13.1-29.8,2.1-41.9l0,0&#10;&#9;&#9;&#9;&#9;c-11-12.2-29.8-13.1-41.9-2.1l-35,31.7C779.6,447.6,778.6,466.3,789.6,478.5z" transform="matrix(1, 0, 0, 1, 20, 0)"/>
			<path fill="#F6C296" d="M789.6,556.2L789.6,556.2c11,12.2,29.8,13.1,41.9,2.1l35-31.7c12.2-11,13.1-29.8,2.1-41.9l0,0&#10;&#9;&#9;&#9;&#9;c-11-12.2-29.8-13.1-41.9-2.1l-35,31.7C779.6,525.2,778.6,544,789.6,556.2z" transform="matrix(1, 0, 0, 1, 20, 0)"/>
		<path d="M 840.9347534179688 903.35302734375" style="fill: rgb(31, 45, 58); fill-opacity: 1; stroke: rgb(0, 0, 0); stroke-opacity: 1; stroke-width: 0; paint-order: fill;"/><path d="M 448.4579162597656 851.5791625976562 L 448.4579162597656 851.5791625976562" style="fill: rgb(31, 45, 58); fill-opacity: 1; stroke: rgb(0, 0, 0); stroke-opacity: 1; stroke-width: 0; paint-order: fill;"/></g><path d="M 1211.8681640625 500.949951171875 C 1211.8681640625 682.7373657226562 1082.5716552734375 830.1185302734375 934.169921875 912.5383911132812 C 864.8080444335938 951.0608520507812 784.9661254882812 973 700 973 C 552.9672241210938 973 421.2791748046875 907.30126953125 332.6907043457031 803.6585693359375 C 260.5579528808594 719.2680053710938 171.2092742919922 659.4932861328125 171.2092742919922 539.7725219726562 C 171.20927429199216 273.0189878043831 446.6958066520393 2029.9909324645996 713.4493408203125 2029.9909324645996 C 980.2028749885857 2029.9909324645996 1211.8681640625 234.19641700360182 1211.8681640625 500.949951171875 Z" fill="#77CEDA" style="paint-order: fill; fill-opacity: 1; fill: rgb(95, 197, 208);" transform="matrix(1, 0, 0, 1, 0.21141770482063293, -0.22539901733398438)"/></svg>